<?xml version="1.0" encoding="UTF-8" standalone="no"?>
<!-- Created with Inkscape (http://www.inkscape.org/) -->

<svg
   width="130mm"
   height="180mm"
   viewBox="0 0 130 180"
   version="1.1"
   id="svg1"
   inkscape:export-filename="derivative-rules-inverse-trig-05.svg"
   inkscape:export-xdpi="96"
   inkscape:export-ydpi="96"
   sodipodi:docname="derivative-rules-inverse-trig-05.svg"
   xmlns:inkscape="http://www.inkscape.org/namespaces/inkscape"
   xmlns:sodipodi="http://sodipodi.sourceforge.net/DTD/sodipodi-0.dtd"
   xmlns="http://www.w3.org/2000/svg"
   xmlns:svg="http://www.w3.org/2000/svg">
  <sodipodi:namedview
     id="namedview1"
     pagecolor="#2a2a2a"
     bordercolor="#000000"
     borderopacity="0.25"
     inkscape:showpageshadow="2"
     inkscape:pageopacity="0.0"
     inkscape:pagecheckerboard="0"
     inkscape:deskcolor="#d1d1d1"
     inkscape:document-units="mm"
     inkscape:zoom="0.83268662"
     inkscape:cx="211.36403"
     inkscape:cy="213.7659"
     inkscape:window-width="1340"
     inkscape:window-height="435"
     inkscape:window-x="0"
     inkscape:window-y="0"
     inkscape:window-maximized="1"
     inkscape:current-layer="layer1" />
  <defs
     id="defs1">
    <clipPath
       id="clipPath3176">
      <rect
         style="font-variation-settings:normal;opacity:1;vector-effect:none;fill:none;fill-opacity:1;stroke:#408ce3;stroke-width:0.999999;stroke-linecap:butt;stroke-linejoin:miter;stroke-miterlimit:4;stroke-dasharray:none;stroke-dashoffset:0;stroke-opacity:1;-inkscape-stroke:none;stop-color:#000000;stop-opacity:1"
         width="64.827003"
         height="34.928001"
         x="8.2399998"
         y="62.178001"
         id="rect6" />
    </clipPath>
    <clipPath
       id="clipPath8389">
      <rect
         style="font-variation-settings:normal;opacity:1;vector-effect:none;fill:none;fill-opacity:1;stroke:#408ce3;stroke-width:0.999999;stroke-linecap:butt;stroke-linejoin:miter;stroke-miterlimit:4;stroke-dasharray:none;stroke-dashoffset:0;stroke-opacity:1;-inkscape-stroke:none;stop-color:#000000;stop-opacity:1"
         width="64.827003"
         height="34.928001"
         x="8.2399998"
         y="62.178001"
         id="rect7" />
    </clipPath>
    <clipPath
       id="clipPath3176-7">
      <rect
         style="font-variation-settings:normal;opacity:1;vector-effect:none;fill:none;fill-opacity:1;stroke:#408ce3;stroke-width:0.999999;stroke-linecap:butt;stroke-linejoin:miter;stroke-miterlimit:4;stroke-dasharray:none;stroke-dashoffset:0;stroke-opacity:1;-inkscape-stroke:none;stop-color:#000000;stop-opacity:1"
         width="64.827003"
         height="34.928001"
         x="8.2399998"
         y="62.178001"
         id="rect6-5" />
    </clipPath>
    <clipPath
       id="clipPath3176-7-9">
      <rect
         style="font-variation-settings:normal;opacity:1;vector-effect:none;fill:none;fill-opacity:1;stroke:#408ce3;stroke-width:0.999999;stroke-linecap:butt;stroke-linejoin:miter;stroke-miterlimit:4;stroke-dasharray:none;stroke-dashoffset:0;stroke-opacity:1;-inkscape-stroke:none;stop-color:#000000;stop-opacity:1"
         width="64.827003"
         height="34.928001"
         x="8.2399998"
         y="62.178001"
         id="rect6-5-1" />
    </clipPath>
    <clipPath
       id="clipPath3176-7-9-3">
      <rect
         style="font-variation-settings:normal;opacity:1;vector-effect:none;fill:none;fill-opacity:1;stroke:#408ce3;stroke-width:0.999999;stroke-linecap:butt;stroke-linejoin:miter;stroke-miterlimit:4;stroke-dasharray:none;stroke-dashoffset:0;stroke-opacity:1;-inkscape-stroke:none;stop-color:#000000;stop-opacity:1"
         width="64.827003"
         height="34.928001"
         x="8.2399998"
         y="62.178001"
         id="rect6-5-1-6" />
    </clipPath>
    <clipPath
       id="clipPath3176-7-2">
      <rect
         style="font-variation-settings:normal;opacity:1;vector-effect:none;fill:none;fill-opacity:1;stroke:#408ce3;stroke-width:0.999999;stroke-linecap:butt;stroke-linejoin:miter;stroke-miterlimit:4;stroke-dasharray:none;stroke-dashoffset:0;stroke-opacity:1;-inkscape-stroke:none;stop-color:#000000;stop-opacity:1"
         width="64.827003"
         height="34.928001"
         x="8.2399998"
         y="62.178001"
         id="rect6-5-3" />
    </clipPath>
    <clipPath
       id="clipPath3176-3">
      <rect
         style="font-variation-settings:normal;opacity:1;vector-effect:none;fill:none;fill-opacity:1;stroke:#408ce3;stroke-width:0.999999;stroke-linecap:butt;stroke-linejoin:miter;stroke-miterlimit:4;stroke-dasharray:none;stroke-dashoffset:0;stroke-opacity:1;-inkscape-stroke:none;stop-color:#000000;stop-opacity:1"
         width="64.827003"
         height="34.928001"
         x="8.2399998"
         y="62.178001"
         id="rect6-6" />
    </clipPath>
    <clipPath
       id="clipPath3176-7-10">
      <rect
         style="font-variation-settings:normal;opacity:1;vector-effect:none;fill:none;fill-opacity:1;stroke:#408ce3;stroke-width:0.999999;stroke-linecap:butt;stroke-linejoin:miter;stroke-miterlimit:4;stroke-dasharray:none;stroke-dashoffset:0;stroke-opacity:1;-inkscape-stroke:none;stop-color:#000000;stop-opacity:1"
         width="64.827003"
         height="34.928001"
         x="8.2399998"
         y="62.178001"
         id="rect6-5-6" />
    </clipPath>
    <clipPath
       id="clipPath3176-7-2-3">
      <rect
         style="font-variation-settings:normal;opacity:1;vector-effect:none;fill:none;fill-opacity:1;stroke:#408ce3;stroke-width:0.999999;stroke-linecap:butt;stroke-linejoin:miter;stroke-miterlimit:4;stroke-dasharray:none;stroke-dashoffset:0;stroke-opacity:1;-inkscape-stroke:none;stop-color:#000000;stop-opacity:1"
         width="64.827003"
         height="34.928001"
         x="8.2399998"
         y="62.178001"
         id="rect6-5-3-2" />
    </clipPath>
    <clipPath
       id="clipPath3176-7-9-0">
      <rect
         style="font-variation-settings:normal;opacity:1;vector-effect:none;fill:none;fill-opacity:1;stroke:#408ce3;stroke-width:0.999999;stroke-linecap:butt;stroke-linejoin:miter;stroke-miterlimit:4;stroke-dasharray:none;stroke-dashoffset:0;stroke-opacity:1;-inkscape-stroke:none;stop-color:#000000;stop-opacity:1"
         width="64.827003"
         height="34.928001"
         x="8.2399998"
         y="62.178001"
         id="rect6-5-1-61" />
    </clipPath>
    <clipPath
       id="clipPath3176-7-9-3-5">
      <rect
         style="font-variation-settings:normal;opacity:1;vector-effect:none;fill:none;fill-opacity:1;stroke:#408ce3;stroke-width:0.999999;stroke-linecap:butt;stroke-linejoin:miter;stroke-miterlimit:4;stroke-dasharray:none;stroke-dashoffset:0;stroke-opacity:1;-inkscape-stroke:none;stop-color:#000000;stop-opacity:1"
         width="64.827003"
         height="34.928001"
         x="8.2399998"
         y="62.178001"
         id="rect6-5-1-6-5" />
    </clipPath>
    <clipPath
       id="clipPath3176-7-9-3-5-4">
      <rect
         style="font-variation-settings:normal;opacity:1;vector-effect:none;fill:none;fill-opacity:1;stroke:#408ce3;stroke-width:0.999999;stroke-linecap:butt;stroke-linejoin:miter;stroke-miterlimit:4;stroke-dasharray:none;stroke-dashoffset:0;stroke-opacity:1;-inkscape-stroke:none;stop-color:#000000;stop-opacity:1"
         width="64.827003"
         height="34.928001"
         x="8.2399998"
         y="62.178001"
         id="rect6-5-1-6-5-7" />
    </clipPath>
    <clipPath
       id="clipPath3176-3-7">
      <rect
         style="font-variation-settings:normal;opacity:1;vector-effect:none;fill:none;fill-opacity:1;stroke:#408ce3;stroke-width:0.999999;stroke-linecap:butt;stroke-linejoin:miter;stroke-miterlimit:4;stroke-dasharray:none;stroke-dashoffset:0;stroke-opacity:1;-inkscape-stroke:none;stop-color:#000000;stop-opacity:1"
         width="64.827003"
         height="34.928001"
         x="8.2399998"
         y="62.178001"
         id="rect6-6-8" />
    </clipPath>
  </defs>
  <g
     inkscape:label="Layer 1"
     inkscape:groupmode="layer"
     id="layer1">
    <rect
       style="font-variation-settings:normal;vector-effect:none;fill:#e0e0e0;fill-opacity:1;stroke:#e0e0e0;stroke-width:0.499999;stroke-linecap:butt;stroke-linejoin:miter;stroke-miterlimit:4;stroke-dasharray:none;stroke-dashoffset:0;stroke-opacity:1;-inkscape-stroke:none;stop-color:#000000"
       id="rect1-4-8"
       width="1.5466436"
       height="37.465019"
       x="77.270798"
       y="2.6687815" />
    <rect
       style="font-variation-settings:normal;vector-effect:none;fill:#e0e0e0;fill-opacity:1;stroke:#e0e0e0;stroke-width:0.499999;stroke-linecap:butt;stroke-linejoin:miter;stroke-miterlimit:4;stroke-dasharray:none;stroke-dashoffset:0;stroke-opacity:1;-inkscape-stroke:none;stop-color:#000000"
       id="rect1-1"
       width="1.5466436"
       height="84.88562"
       x="35.099525"
       y="-68.744957"
       transform="rotate(63.8451)" />
    <rect
       style="font-variation-settings:normal;fill:none;fill-opacity:1;stroke:#e0e0e0;stroke-width:1.5;stroke-linecap:butt;stroke-linejoin:miter;stroke-miterlimit:4;stroke-dasharray:none;stroke-dashoffset:0;stroke-opacity:1;stop-color:#000000"
       id="rect2"
       width="6.533946"
       height="6.5435534"
       x="71.624207"
       y="33.054695" />
    <rect
       style="fill:#e0e0e0;fill-opacity:1;stroke:#e0e0e0;stroke-width:0.499999;stroke-opacity:1;-inkscape-stroke:none"
       id="rect1-9"
       width="1.6169021"
       height="77.918571"
       x="38.919979"
       y="-78.817024"
       transform="rotate(90)" />
    <rect
       style="font-variation-settings:normal;vector-effect:none;fill:#408ce3;fill-opacity:1;stroke:#408ce3;stroke-width:0;stroke-linecap:butt;stroke-linejoin:miter;stroke-miterlimit:4;stroke-dasharray:none;stroke-dashoffset:0;stroke-opacity:1;-inkscape-stroke:none;stop-color:#000000"
       id="rect1-9-2-21"
       width="1.6169021"
       height="38.207504"
       x="81.137527"
       y="2.3848383" />
    <rect
       style="font-variation-settings:normal;vector-effect:none;fill:#408ce3;fill-opacity:1;stroke:#408ce3;stroke-width:0;stroke-linecap:butt;stroke-linejoin:miter;stroke-miterlimit:4;stroke-dasharray:none;stroke-dashoffset:0;stroke-opacity:1;-inkscape-stroke:none;stop-color:#000000"
       id="rect1-9-2-5-5"
       width="1.6169021"
       height="5.1495633"
       x="39.30624"
       y="-84.45993"
       transform="rotate(90)" />
    <rect
       style="fill:#408ce3;fill-opacity:1;stroke:#408ce3;stroke-width:0;stroke-dasharray:none;stroke-opacity:1"
       id="rect1-9-2-5-9-6"
       width="1.6169021"
       height="5.1495633"
       x="1.3443625"
       y="-84.504189"
       transform="rotate(90)" />
    <rect
       style="fill:#ad408e;fill-opacity:1;stroke:#e0e0e0;stroke-width:0;stroke-dasharray:none;stroke-opacity:1"
       id="rect1-9-2-2"
       width="1.6169021"
       height="76.227806"
       x="42.978878"
       y="-77.285965"
       transform="rotate(90)" />
    <rect
       style="fill:#ad408e;fill-opacity:1;stroke:#e0e0e0;stroke-width:0;stroke-dasharray:none;stroke-opacity:1"
       id="rect1-9-2-5-2"
       width="1.6169021"
       height="5.1495633"
       x="-2.3442702"
       y="-46.301289"
       transform="scale(-1)" />
    <rect
       style="fill:#ad408e;fill-opacity:1;stroke:#e0e0e0;stroke-width:0;stroke-dasharray:none;stroke-opacity:1"
       id="rect1-9-2-5-9-1"
       width="1.6169021"
       height="5.1495633"
       x="-78.80024"
       y="-46.382336"
       transform="scale(-1)" />
    <path
       style="fill:none;fill-opacity:1;stroke:#ececec;stroke-width:2;stroke-dasharray:none"
       id="path1-0"
       sodipodi:type="arc"
       sodipodi:cx="2.0036407"
       sodipodi:cy="40.238232"
       sodipodi:rx="29.035372"
       sodipodi:ry="29.035372"
       sodipodi:start="5.7672906"
       sodipodi:end="6.2786511"
       sodipodi:arc-type="arc"
       d="M 27.260108,25.914696 A 29.035372,29.035372 0 0 1 31.038714,40.10658"
       sodipodi:open="true" />
    <text
       xml:space="preserve"
       style="font-style:normal;font-variant:normal;font-weight:normal;font-stretch:normal;font-size:11.7503px;line-height:normal;font-family:sans-serif;font-variant-ligatures:normal;font-variant-position:normal;font-variant-caps:normal;font-variant-numeric:normal;font-variant-alternates:normal;font-variant-east-asian:normal;font-feature-settings:normal;font-variation-settings:normal;text-indent:0;text-align:start;text-decoration-line:none;text-decoration-style:solid;text-decoration-color:#000000;letter-spacing:normal;word-spacing:normal;text-transform:none;writing-mode:lr-tb;direction:ltr;text-orientation:mixed;dominant-baseline:auto;baseline-shift:baseline;white-space:pre;opacity:1;vector-effect:none;fill:#5c00ff;fill-opacity:1;stroke:#e0e0e0;stroke-width:0.5;stroke-linecap:butt;stroke-linejoin:miter;stroke-miterlimit:4;stroke-dasharray:none;stroke-dashoffset:0;stroke-opacity:1;-inkscape-stroke:none;stop-color:#000000;stop-opacity:1"
       x="20.496784"
       y="40.480968"
       id="text2-65"
       transform="scale(1.052379,0.950228)"><tspan
         sodipodi:role="line"
         id="tspan2-6"
         style="font-style:normal;font-variant:normal;font-weight:normal;font-stretch:normal;font-size:11.7503px;line-height:normal;font-family:sans-serif;font-variant-ligatures:normal;font-variant-position:normal;font-variant-caps:normal;font-variant-numeric:normal;font-variant-alternates:normal;font-variant-east-asian:normal;font-feature-settings:normal;font-variation-settings:normal;text-indent:0;text-align:start;text-decoration-line:none;text-decoration-style:solid;text-decoration-color:#000000;letter-spacing:normal;word-spacing:normal;text-transform:none;writing-mode:lr-tb;direction:ltr;text-orientation:mixed;dominant-baseline:auto;baseline-shift:baseline;white-space:pre;vector-effect:none;fill:#5c00ff;fill-opacity:1;stroke:#e0e0e0;stroke-width:0.5;stroke-linecap:butt;stroke-linejoin:miter;stroke-miterlimit:4;stroke-dasharray:none;stroke-dashoffset:0;stroke-opacity:1;-inkscape-stroke:none;stop-color:#000000;stop-opacity:1"
         x="20.496784"
         y="40.480968">θ</tspan></text>
    <text
       xml:space="preserve"
       style="font-style:normal;font-variant:normal;font-weight:normal;font-stretch:normal;font-size:11.7503px;line-height:normal;font-family:sans-serif;font-variant-ligatures:normal;font-variant-position:normal;font-variant-caps:normal;font-variant-numeric:normal;font-variant-alternates:normal;font-variant-east-asian:normal;font-feature-settings:normal;font-variation-settings:normal;text-indent:0;text-align:start;text-decoration-line:none;text-decoration-style:solid;text-decoration-color:#000000;letter-spacing:normal;word-spacing:normal;text-transform:none;writing-mode:lr-tb;direction:ltr;text-orientation:mixed;dominant-baseline:auto;baseline-shift:baseline;white-space:pre;opacity:1;vector-effect:none;fill:#5c00ff;fill-opacity:1;stroke:#e0e0e0;stroke-width:0.5;stroke-linecap:butt;stroke-linejoin:miter;stroke-miterlimit:4;stroke-dasharray:none;stroke-dashoffset:0;stroke-opacity:1;-inkscape-stroke:none;stop-color:#000000;stop-opacity:1"
       x="34.79768"
       y="16.860901"
       id="text2-65-8-2-7"
       transform="scale(1.052379,0.950228)"><tspan
         sodipodi:role="line"
         id="tspan2-6-3-4-3"
         style="font-style:normal;font-variant:normal;font-weight:normal;font-stretch:normal;font-size:11.7503px;line-height:normal;font-family:sans-serif;font-variant-ligatures:normal;font-variant-position:normal;font-variant-caps:normal;font-variant-numeric:normal;font-variant-alternates:normal;font-variant-east-asian:normal;font-feature-settings:normal;font-variation-settings:normal;text-indent:0;text-align:start;text-decoration-line:none;text-decoration-style:solid;text-decoration-color:#000000;letter-spacing:normal;word-spacing:normal;text-transform:none;writing-mode:lr-tb;direction:ltr;text-orientation:mixed;dominant-baseline:auto;baseline-shift:baseline;white-space:pre;vector-effect:none;fill:#5c00ff;fill-opacity:1;stroke:#e0e0e0;stroke-width:0.5;stroke-linecap:butt;stroke-linejoin:miter;stroke-miterlimit:4;stroke-dasharray:none;stroke-dashoffset:0;stroke-opacity:1;-inkscape-stroke:none;stop-color:#000000;stop-opacity:1"
         x="34.79768"
         y="16.860901">x</tspan></text>
    <text
       xml:space="preserve"
       style="font-size:11.7503px;line-height:normal;font-family:sans-serif;font-variation-settings:normal;text-decoration-color:#000000;white-space:pre;vector-effect:none;fill:#408ce3;fill-opacity:1;stroke:#e0e0e0;stroke-width:0.499999;stroke-linecap:butt;stroke-linejoin:miter;stroke-miterlimit:4;stroke-dasharray:none;stroke-dashoffset:0;stroke-opacity:1;-inkscape-stroke:none"
       x="80.015495"
       y="24.610571"
       id="text2-9"
       transform="scale(1.052379,0.950228)"><tspan
         sodipodi:role="line"
         id="tspan2-5"
         style="fill:#408ce3;fill-opacity:1;stroke:#e0e0e0;stroke-width:0.499999;stroke-opacity:1"
         x="80.015495"
         y="24.610571">√(x² - 1)</tspan></text>
    <text
       xml:space="preserve"
       style="font-size:11.7503px;line-height:normal;font-family:sans-serif;font-variation-settings:normal;text-decoration-color:#000000;white-space:pre;vector-effect:none;fill:#ad408e;fill-opacity:1;stroke:#e0e0e0;stroke-width:0.499999;stroke-linecap:butt;stroke-linejoin:miter;stroke-miterlimit:4;stroke-dasharray:none;stroke-dashoffset:0;stroke-opacity:1;-inkscape-stroke:none"
       x="38.173912"
       y="57.190357"
       id="text2-6"
       transform="scale(1.052379,0.950228)"><tspan
         sodipodi:role="line"
         id="tspan2-4"
         style="fill:#ad408e;fill-opacity:1;stroke:#e0e0e0;stroke-width:0.499999;stroke-opacity:1"
         x="38.173912"
         y="57.190357">1</tspan></text>
    <path
       style="font-variation-settings:normal;opacity:1;vector-effect:none;fill:none;fill-opacity:1;stroke:#408ce3;stroke-width:0.996372;stroke-linecap:butt;stroke-linejoin:miter;stroke-miterlimit:4;stroke-dasharray:none;stroke-dashoffset:0;stroke-opacity:1;-inkscape-stroke:none;stop-color:#000000;stop-opacity:1"
       d="M 8.24,79.642 H 73.067 M 40.6535,97.106 V 62.178 m -6.9751,-2.6578 c 0.2736,4.8035 0.5471,6.7033 0.8206,8.2855 0.2736,1.5821 0.5471,2.5388 0.8206,3.2995 0.2736,0.7608 0.5471,1.2942 0.8206,1.7266 0.2736,0.4323 0.5471,0.7572 0.8206,1.0241 0.2736,0.2669 0.5471,0.4737 0.8206,0.6435 0.2736,0.1697 0.5471,0.3016 0.8206,0.4071 0.2735,0.1055 0.5471,0.1842 0.8206,0.2422 0.2735,0.058 0.5471,0.0949 0.8206,0.1135 0.2735,0.0185 0.5471,0.0184 0.8206,0 0.2735,-0.0185 0.5471,-0.0556 0.8206,-0.1135 0.2735,-0.0579 0.5471,-0.1368 0.8206,-0.2422 0.2735,-0.1055 0.5471,-0.2374 0.8206,-0.4071 0.2735,-0.1697 0.547,-0.3768 0.8206,-0.6435 0.2735,-0.2668 0.547,-0.592 0.8206,-1.0241 0.2735,-0.4322 0.547,-0.9663 0.8206,-1.7266 0.2735,-0.7603 0.547,-1.7188 0.8206,-3.2995 0.2735,-1.5808 0.547,-3.489 0.8206,-8.2855"
       title="1/(cos(x))"
       clip-path="url(#clipPath3176)"
       id="path6"
       sodipodi:nodetypes="cccccccccccssccscscccc"
       transform="matrix(1.0124693,0,0,0.99488742,-0.41109529,0.10903609)" />
    <path
       style="font-variation-settings:normal;vector-effect:none;fill:none;fill-opacity:1;stroke:#408ce3;stroke-width:0.996372;stroke-linecap:butt;stroke-linejoin:miter;stroke-miterlimit:4;stroke-dasharray:none;stroke-dashoffset:0;stroke-opacity:1;-inkscape-stroke:none;stop-color:#000000"
       d="m 33.6784,59.5202 c 0.2736,4.8035 0.5471,6.7033 0.8206,8.2855 0.2736,1.5821 0.5471,2.5388 0.8206,3.2995 0.2736,0.7608 0.5471,1.2942 0.8206,1.7266 0.2736,0.4323 0.5471,0.7572 0.8206,1.0241 0.2736,0.2669 0.5471,0.4737 0.8206,0.6435 0.2736,0.1697 0.5471,0.3016 0.8206,0.4071 0.2735,0.1055 0.5471,0.1842 0.8206,0.2422 0.2735,0.058 0.5471,0.0949 0.8206,0.1135"
       title="1/(cos(x))"
       clip-path="url(#clipPath3176-7)"
       id="path6-5"
       sodipodi:nodetypes="cccccccsc"
       transform="matrix(1.0124693,0,0,0.99488742,32.331614,-0.18211158)" />
    <path
       style="font-variation-settings:normal;vector-effect:none;fill:none;fill-opacity:1;stroke:#408ce3;stroke-width:0.996372;stroke-linecap:butt;stroke-linejoin:miter;stroke-miterlimit:4;stroke-dasharray:none;stroke-dashoffset:0;stroke-opacity:1;-inkscape-stroke:none;stop-color:#000000"
       d="m 33.6784,59.5202 c 0.2736,4.8035 0.5471,6.7033 0.8206,8.2855 0.2736,1.5821 0.5471,2.5388 0.8206,3.2995 0.2736,0.7608 0.5471,1.2942 0.8206,1.7266 0.2736,0.4323 0.5471,0.7572 0.8206,1.0241 0.2736,0.2669 0.5471,0.4737 0.8206,0.6435 0.2736,0.1697 0.5471,0.3016 0.8206,0.4071 0.2735,0.1055 0.5471,0.1842 0.8206,0.2422 0.2735,0.058 0.5471,0.0949 0.8206,0.1135"
       title="1/(cos(x))"
       clip-path="url(#clipPath3176-7-2)"
       id="path6-5-5"
       sodipodi:nodetypes="cccccccsc"
       transform="matrix(-1.0124693,0,0,0.99488742,48.542377,0.14303675)" />
    <path
       style="font-variation-settings:normal;vector-effect:none;fill:none;fill-opacity:1;stroke:#408ce3;stroke-width:0.996372;stroke-linecap:butt;stroke-linejoin:miter;stroke-miterlimit:4;stroke-dasharray:none;stroke-dashoffset:0;stroke-opacity:1;-inkscape-stroke:none;stop-color:#000000"
       d="m 33.6784,59.5202 c 0.2736,4.8035 0.5471,6.7033 0.8206,8.2855 0.2736,1.5821 0.5471,2.5388 0.8206,3.2995 0.2736,0.7608 0.5471,1.2942 0.8206,1.7266 0.2736,0.4323 0.5471,0.7572 0.8206,1.0241 0.2736,0.2669 0.5471,0.4737 0.8206,0.6435 0.2736,0.1697 0.5471,0.3016 0.8206,0.4071 0.2735,0.1055 0.5471,0.1842 0.8206,0.2422 0.2735,0.058 0.5471,0.0949 0.8206,0.1135 0.2735,0.0185 0.5471,0.0184 0.8206,0 0.2735,-0.0185 0.5471,-0.0556 0.8206,-0.1135 0.2735,-0.0579 0.5471,-0.1368 0.8206,-0.2422 0.2735,-0.1055 0.5471,-0.2374 0.8206,-0.4071 0.2735,-0.1697 0.547,-0.3768 0.8206,-0.6435 0.2735,-0.2668 0.547,-0.592 0.8206,-1.0241 0.2735,-0.4322 0.547,-0.9663 0.8206,-1.7266 0.2735,-0.7603 0.547,-1.7188 0.8206,-3.2995 0.2735,-1.5808 0.547,-3.489 0.8206,-8.2855"
       title="1/(cos(x))"
       clip-path="url(#clipPath3176-7-9)"
       id="path6-5-7"
       sodipodi:nodetypes="cccccccssccscscccc"
       transform="matrix(-1.0124693,0,0,-0.99488742,98.900102,158.97504)" />
    <path
       style="font-variation-settings:normal;vector-effect:none;fill:none;fill-opacity:1;stroke:#408ce3;stroke-width:0.996372;stroke-linecap:butt;stroke-linejoin:miter;stroke-miterlimit:4;stroke-dasharray:none;stroke-dashoffset:0;stroke-opacity:1;-inkscape-stroke:none;stop-color:#000000"
       d="m 33.6784,59.5202 c 0.2736,4.8035 0.5471,6.7033 0.8206,8.2855 0.2736,1.5821 0.5471,2.5388 0.8206,3.2995 0.2736,0.7608 0.5471,1.2942 0.8206,1.7266 0.2736,0.4323 0.5471,0.7572 0.8206,1.0241 0.2736,0.2669 0.5471,0.4737 0.8206,0.6435 0.2736,0.1697 0.5471,0.3016 0.8206,0.4071 0.2735,0.1055 0.5471,0.1842 0.8206,0.2422 0.2735,0.058 0.5471,0.0949 0.8206,0.1135 0.2735,0.0185 0.5471,0.0184 0.8206,0 0.2735,-0.0185 0.5471,-0.0556 0.8206,-0.1135 0.2735,-0.0579 0.5471,-0.1368 0.8206,-0.2422 0.2735,-0.1055 0.5471,-0.2374 0.8206,-0.4071 0.2735,-0.1697 0.547,-0.3768 0.8206,-0.6435 0.2735,-0.2668 0.547,-0.592 0.8206,-1.0241 0.2735,-0.4322 0.547,-0.9663 0.8206,-1.7266 0.2735,-0.7603 0.547,-1.7188 0.8206,-3.2995 0.2735,-1.5808 0.547,-3.489 0.8206,-8.2855"
       title="1/(cos(x))"
       clip-path="url(#clipPath3176-7-9-3)"
       id="path6-5-7-6"
       sodipodi:nodetypes="cccccccssccscscccc"
       transform="matrix(-1.0124693,0,0,-0.99488742,65.309119,159.46611)" />
    <path
       style="font-variation-settings:normal;opacity:1;vector-effect:none;fill:none;fill-opacity:1;stroke:#5c00ff;stroke-width:0.996372;stroke-linecap:butt;stroke-linejoin:miter;stroke-miterlimit:4;stroke-dasharray:none;stroke-dashoffset:0;stroke-opacity:1;-inkscape-stroke:none;stop-color:#000000;stop-opacity:1"
       d="m 8.24,75.276 c 0.27353,0 0.54706,0.0185 0.82059,0.0551 0.27354,0.0367 0.54707,0.0916 0.8206,0.164 0.27351,0.0724 0.54711,0.1623 0.82061,0.2687 0.2735,0.1063 0.547,0.229 0.8206,0.3666 0.2735,0.1375 0.547,0.2899 0.8206,0.4552 0.2735,0.1653 0.547,0.3436 0.8206,0.5325 0.2735,0.1888 0.547,0.3884 0.8206,0.5961 0.2735,0.2077 0.547,0.4236 0.8206,0.6449 0.2735,0.2212 0.547,0.4479 0.8206,0.6772 0.2735,0.2292 0.547,0.4611 0.8205,0.6925 0.2736,0.2315 0.5471,0.4625 0.8206,0.6903 0.2736,0.2278 0.5471,0.4523 0.8206,0.6708 0.2736,0.2184 0.5471,0.4306 0.8206,0.6341 0.2736,0.2035 0.5471,0.3982 0.8206,0.5816 0.2736,0.1834 0.5471,0.3556 0.8206,0.5143 0.2736,0.1588 0.5471,0.3041 0.8206,0.4341 0.2736,0.1301 0.5471,0.2448 0.8206,0.3429 0.2735,0.0981 0.5471,0.1794 0.8206,0.243 0.2735,0.0637 0.5471,0.1095 0.8206,0.1371 0.2735,0.0275 0.5471,0.0367 0.8206,0.0275 0.2735,-0.0091 0.5471,-0.0368 0.8206,-0.0825 0.2735,-0.0457 0.5471,-0.1096 0.8206,-0.1907 0.2735,-0.081 0.5471,-0.1794 0.8206,-0.2938 0.2735,-0.1144 0.547,-0.2449 0.8206,-0.3898 0.2735,-0.1448 0.547,-0.3041 0.8206,-0.4757 0.2735,-0.1716 0.547,-0.3556 0.8206,-0.5497 0.2735,-0.194 0.547,-0.3982 0.8206,-0.6098 0.2735,-0.2116 0.547,-0.4307 0.8206,-0.6545 0.2735,-0.2238 0.547,-0.4523 0.8206,-0.6827 0.2735,-0.2303 0.547,-0.4625 0.8205,-0.6936 0.2736,-0.2311 0.5471,-0.461 0.8206,-0.687 0.2736,-0.226 0.5471,-0.448 0.8206,-0.6632 0.2736,-0.2151 0.5471,-0.4235 0.8206,-0.6224 0.2736,-0.199 0.5471,-0.3884 0.8206,-0.5661 0.2736,-0.1777 0.5471,-0.3435 0.8206,-0.4954 0.2736,-0.152 0.5471,-0.2899 0.8206,-0.4123 0.2736,-0.1223 0.5471,-0.2289 0.8206,-0.3186 0.2735,-0.0897 0.5471,-0.1623 0.8206,-0.217 0.2735,-0.0547 0.5471,-0.0915 0.8206,-0.1099 0.2735,-0.0184 0.5471,-0.0184 0.8206,0 0.2735,0.0184 0.5471,0.0552 0.8206,0.1099 0.2735,0.0547 0.5471,0.1274 0.8206,0.217 0.2735,0.0896 0.5471,0.1963 0.8206,0.3186 0.2735,0.1224 0.547,0.2604 0.8206,0.4123 0.2735,0.1519 0.547,0.3177 0.8206,0.4954 0.2735,0.1776 0.547,0.3672 0.8206,0.5661 0.2735,0.1989 0.547,0.4073 0.8206,0.6224 0.2735,0.2152 0.547,0.4372 0.8206,0.6632 0.2735,0.2259 0.547,0.4559 0.8206,0.687 0.2735,0.2311 0.547,0.4633 0.8205,0.6936 0.2736,0.2304 0.5471,0.4589 0.8206,0.6827 0.2736,0.2238 0.5471,0.4429 0.8206,0.6545 0.2736,0.2116 0.5471,0.4157 0.8206,0.6098 0.2736,0.1941 0.5471,0.3781 0.8206,0.5497 0.2736,0.1717 0.5471,0.3309 0.8206,0.4757 0.2736,0.1449 0.5471,0.2753 0.8206,0.3898 0.2736,0.1144 0.5471,0.2127 0.8206,0.2938 0.2735,0.0812 0.5471,0.1449 0.8206,0.1907 0.2735,0.0457 0.5471,0.0733 0.8206,0.0825 0.2735,0.0093 0.5471,0 0.8206,-0.0275 0.2735,-0.0276 0.5471,-0.0735 0.8206,-0.1371 0.2735,-0.0636 0.5471,-0.1449 0.8206,-0.243 0.2735,-0.098 0.5471,-0.2129 0.8206,-0.3429 0.2735,-0.13 0.547,-0.2754 0.8206,-0.4341 0.2735,-0.1587 0.547,-0.3309 0.8206,-0.5143 0.2735,-0.1834 0.547,-0.3781 0.8206,-0.5816 0.2735,-0.2035 0.547,-0.4158 0.8206,-0.6341 0.2735,-0.2184 0.547,-0.443 0.8206,-0.6708 0.2735,-0.2278 0.547,-0.4588 0.8206,-0.6903 0.2735,-0.2314 0.547,-0.4633 0.8205,-0.6925 0.2736,-0.2293 0.5471,-0.456 0.8206,-0.6772 0.2736,-0.2213 0.5471,-0.4372 0.8206,-0.6449 0.2736,-0.2077 0.5471,-0.4072 0.8206,-0.5961 0.2736,-0.189 0.5471,-0.3672 0.8206,-0.5325 0.2736,-0.1653 0.5471,-0.3177 0.8206,-0.4552 0.2736,-0.1376 0.5471,-0.2603 0.8206,-0.3666 0.2735,-0.1064 0.5471,-0.1963 0.8206,-0.2687 0.2735,-0.0724 0.5471,-0.1273 0.8206,-0.164 0.2735,-0.0367 0.5471,-0.0551 0.8206,-0.0551"
       title="cos(x)"
       clip-path="url(#clipPath8389)"
       id="path7"
       transform="matrix(1.0124693,0,0,0.99488742,-0.60274714,0.4576052)"
       sodipodi:nodetypes="ccscccccsssccccccscccscscccccscccccccsssssscccccscsccccccccccscscccccssscccccssc" />
    <path
       style="font-variation-settings:normal;opacity:1;vector-effect:none;fill:none;fill-opacity:1;stroke:#ad408e;stroke-width:0.996907;stroke-linecap:butt;stroke-linejoin:miter;stroke-miterlimit:4;stroke-dasharray:none;stroke-dashoffset:0;stroke-opacity:1;-inkscape-stroke:none;stop-color:#000000;stop-opacity:1"
       d="M 8.24,79.642 H 73.067 M 40.6535,97.106 V 62.178 m -6.9751,-2.6578 c 0.2736,4.8035 0.5471,6.7033 0.8206,8.2855 0.2736,1.5821 0.5471,2.5388 0.8206,3.2995 0.2736,0.7608 0.5471,1.2942 0.8206,1.7266 0.2736,0.4323 0.5471,0.7572 0.8206,1.0241 0.2736,0.2669 0.5471,0.4737 0.8206,0.6435 0.2736,0.1697 0.5471,0.3016 0.8206,0.4071 0.2735,0.1055 0.5471,0.1842 0.8206,0.2422 0.2735,0.058 0.5471,0.0949 0.8206,0.1135 0.2735,0.0185 0.5471,0.0184 0.8206,0"
       title="1/(cos(x))"
       clip-path="url(#clipPath3176-3)"
       id="path6-56"
       sodipodi:nodetypes="cccccccccccssc"
       transform="matrix(0,1.0589505,-0.95020139,0,116.96156,97.529572)" />
    <path
       style="font-variation-settings:normal;opacity:1;vector-effect:none;fill:none;fill-opacity:1;stroke:#e0e0e0;stroke-width:0.996907;stroke-linecap:butt;stroke-linejoin:miter;stroke-miterlimit:4;stroke-dasharray:0.996907, 0.996907;stroke-dashoffset:0;stroke-opacity:1;-inkscape-stroke:none;stop-color:#000000;stop-opacity:1"
       d="m 41.0638,75.2622 c 0.2735,-0.0185 0.5471,-0.0556 0.8206,-0.1135 0.2735,-0.0579 0.5471,-0.1368 0.8206,-0.2422 0.2735,-0.1055 0.5471,-0.2374 0.8206,-0.4071 0.2735,-0.1697 0.547,-0.3768 0.8206,-0.6435 0.2735,-0.2668 0.547,-0.592 0.8206,-1.0241 0.2735,-0.4322 0.547,-0.9663 0.8206,-1.7266 0.2735,-0.7603 0.547,-1.7188 0.8206,-3.2995 0.2735,-1.5808 0.547,-3.489 0.8206,-8.2855"
       title="1/(cos(x))"
       clip-path="url(#clipPath3176-3-7)"
       id="path6-56-8"
       sodipodi:nodetypes="ccscscccc"
       transform="matrix(0,1.0589505,-0.95020139,0,117.0145,96.909157)" />
    <path
       style="font-variation-settings:normal;opacity:1;vector-effect:none;fill:none;fill-opacity:1;stroke:#e0e0e0;stroke-width:0.996907;stroke-linecap:butt;stroke-linejoin:miter;stroke-miterlimit:4;stroke-dasharray:0.996907, 0.996907;stroke-dashoffset:0;stroke-opacity:1;-inkscape-stroke:none;stop-color:#000000;stop-opacity:1"
       d="m 33.6784,59.5202 c 0.2736,4.8035 0.5471,6.7033 0.8206,8.2855 0.2736,1.5821 0.5471,2.5388 0.8206,3.2995 0.2736,0.7608 0.5471,1.2942 0.8206,1.7266 0.2736,0.4323 0.5471,0.7572 0.8206,1.0241 0.2736,0.2669 0.5471,0.4737 0.8206,0.6435 0.2736,0.1697 0.5471,0.3016 0.8206,0.4071 0.2735,0.1055 0.5471,0.1842 0.8206,0.2422 0.2735,0.058 0.5471,0.0949 0.8206,0.1135"
       title="1/(cos(x))"
       clip-path="url(#clipPath3176-7-10)"
       id="path6-5-9"
       sodipodi:nodetypes="cccccccsc"
       transform="matrix(0,1.0589505,-0.95020139,0,117.23963,131.77545)" />
    <path
       style="font-variation-settings:normal;opacity:1;vector-effect:none;fill:none;fill-opacity:1;stroke:#e0e0e0;stroke-width:0.996907;stroke-linecap:butt;stroke-linejoin:miter;stroke-miterlimit:4;stroke-dasharray:0.996907, 0.996907;stroke-dashoffset:0;stroke-opacity:1;-inkscape-stroke:none;stop-color:#000000;stop-opacity:1"
       d="m 33.6784,59.5202 c 0.2736,4.8035 0.5471,6.7033 0.8206,8.2855 0.2736,1.5821 0.5471,2.5388 0.8206,3.2995 0.2736,0.7608 0.5471,1.2942 0.8206,1.7266 0.2736,0.4323 0.5471,0.7572 0.8206,1.0241 0.2736,0.2669 0.5471,0.4737 0.8206,0.6435 0.2736,0.1697 0.5471,0.3016 0.8206,0.4071 0.2735,0.1055 0.5471,0.1842 0.8206,0.2422 0.2735,0.058 0.5471,0.0949 0.8206,0.1135"
       title="1/(cos(x))"
       clip-path="url(#clipPath3176-7-2-3)"
       id="path6-5-5-3"
       sodipodi:nodetypes="cccccccsc"
       transform="matrix(0,-1.0589505,-0.95020139,0,116.92909,148.73044)" />
    <path
       style="font-variation-settings:normal;opacity:1;vector-effect:none;fill:none;fill-opacity:1;stroke:#e0e0e0;stroke-width:0.996907;stroke-linecap:butt;stroke-linejoin:miter;stroke-miterlimit:4;stroke-dasharray:0.996907, 0.996907;stroke-dashoffset:0;stroke-opacity:1;-inkscape-stroke:none;stop-color:#000000;stop-opacity:1"
       d="m 33.6784,59.5202 c 0.2736,4.8035 0.5471,6.7033 0.8206,8.2855 0.2736,1.5821 0.5471,2.5388 0.8206,3.2995 0.2736,0.7608 0.5471,1.2942 0.8206,1.7266 0.2736,0.4323 0.5471,0.7572 0.8206,1.0241 0.2736,0.2669 0.5471,0.4737 0.8206,0.6435 0.2736,0.1697 0.5471,0.3016 0.8206,0.4071 0.2735,0.1055 0.5471,0.1842 0.8206,0.2422 0.2735,0.058 0.5471,0.0949 0.8206,0.1135 0.2735,0.0185 0.5471,0.0184 0.8206,0 0.2735,-0.0185 0.5471,-0.0556 0.8206,-0.1135 0.2735,-0.0579 0.5471,-0.1368 0.8206,-0.2422 0.2735,-0.1055 0.5471,-0.2374 0.8206,-0.4071 0.2735,-0.1697 0.547,-0.3768 0.8206,-0.6435 0.2735,-0.2668 0.547,-0.592 0.8206,-1.0241 0.2735,-0.4322 0.547,-0.9663 0.8206,-1.7266 0.2735,-0.7603 0.547,-1.7188 0.8206,-3.2995 0.2735,-1.5808 0.547,-3.489 0.8206,-8.2855"
       title="1/(cos(x))"
       clip-path="url(#clipPath3176-7-9-0)"
       id="path6-5-7-7"
       sodipodi:nodetypes="cccccccssccscscccc"
       transform="matrix(0,-1.0589505,0.95020139,0,-34.768863,201.40002)" />
    <path
       style="font-variation-settings:normal;opacity:1;vector-effect:none;fill:none;fill-opacity:1;stroke:#e0e0e0;stroke-width:0.996907;stroke-linecap:butt;stroke-linejoin:miter;stroke-miterlimit:4;stroke-dasharray:0.996907, 0.996907;stroke-dashoffset:0;stroke-opacity:1;-inkscape-stroke:none;stop-color:#000000;stop-opacity:1"
       d="m 40.2432,75.2622 c 0.2735,0.0185 0.5471,0.0184 0.8206,0 0.2735,-0.0185 0.5471,-0.0556 0.8206,-0.1135 0.2735,-0.0579 0.5471,-0.1368 0.8206,-0.2422 0.2735,-0.1055 0.5471,-0.2374 0.8206,-0.4071 0.2735,-0.1697 0.547,-0.3768 0.8206,-0.6435 0.2735,-0.2668 0.547,-0.592 0.8206,-1.0241 0.2735,-0.4322 0.547,-0.9663 0.8206,-1.7266 0.2735,-0.7603 0.547,-1.7188 0.8206,-3.2995 0.2735,-1.5808 0.547,-3.489 0.8206,-8.2855"
       title="1/(cos(x))"
       clip-path="url(#clipPath3176-7-9-3-5)"
       id="path6-5-7-6-4"
       sodipodi:nodetypes="cccscscccc"
       transform="matrix(0,-1.0589505,0.95020139,0,-35.237884,166.26692)" />
    <path
       style="font-variation-settings:normal;opacity:1;vector-effect:none;fill:none;fill-opacity:1;stroke:#ad408e;stroke-width:0.996907;stroke-linecap:butt;stroke-linejoin:miter;stroke-miterlimit:4;stroke-dasharray:none;stroke-dashoffset:0;stroke-opacity:1;-inkscape-stroke:none;stop-color:#000000;stop-opacity:1"
       d="m 33.6784,59.5202 c 0.2736,4.8035 0.5471,6.7033 0.8206,8.2855 0.2736,1.5821 0.5471,2.5388 0.8206,3.2995 0.2736,0.7608 0.5471,1.2942 0.8206,1.7266 0.2736,0.4323 0.5471,0.7572 0.8206,1.0241 0.2736,0.2669 0.5471,0.4737 0.8206,0.6435 0.2736,0.1697 0.5471,0.3016 0.8206,0.4071 0.2735,0.1055 0.5471,0.1842 0.8206,0.2422 0.2735,0.058 0.5471,0.0949 0.8206,0.1135"
       title="1/(cos(x))"
       clip-path="url(#clipPath3176-7-9-3-5-4)"
       id="path6-5-7-6-4-4"
       sodipodi:nodetypes="cccccccsc"
       transform="matrix(0,-1.0589505,0.95020139,0,-35.281619,166.4026)" />
    <text
       xml:space="preserve"
       style="font-size:11.7503px;line-height:normal;font-family:sans-serif;font-variation-settings:normal;text-decoration-color:#000000;white-space:pre;vector-effect:none;fill:#408ce3;fill-opacity:1;stroke:#e0e0e0;stroke-width:0.499999;stroke-linecap:butt;stroke-linejoin:miter;stroke-miterlimit:4;stroke-dasharray:none;stroke-dashoffset:0;stroke-opacity:1;-inkscape-stroke:none"
       x="75.877945"
       y="74.636269"
       id="text2-9-1"
       transform="scale(1.052379,0.950228)"><tspan
         sodipodi:role="line"
         id="tspan2-5-2"
         style="fill:#408ce3;fill-opacity:1;stroke:#e0e0e0;stroke-width:0.499999;stroke-opacity:1"
         x="75.877945"
         y="74.636269">sec(x)</tspan></text>
    <text
       xml:space="preserve"
       style="font-size:11.7503px;line-height:normal;font-family:sans-serif;font-variation-settings:normal;text-decoration-color:#000000;white-space:pre;vector-effect:none;fill:#408ce3;fill-opacity:1;stroke:#e0e0e0;stroke-width:0.499999;stroke-linecap:butt;stroke-linejoin:miter;stroke-miterlimit:4;stroke-dasharray:none;stroke-dashoffset:0;stroke-opacity:1;-inkscape-stroke:none"
       x="76.270348"
       y="96.642174"
       id="text2-9-1-8"
       transform="scale(1.052379,0.950228)"><tspan
         sodipodi:role="line"
         id="tspan2-5-2-4"
         style="fill:#408ce3;fill-opacity:1;stroke:#e0e0e0;stroke-width:0.499999;stroke-opacity:1"
         x="76.270348"
         y="96.642174">1/</tspan></text>
    <text
       xml:space="preserve"
       style="font-style:normal;font-variant:normal;font-weight:normal;font-stretch:normal;font-size:11.7503px;line-height:normal;font-family:sans-serif;font-variant-ligatures:normal;font-variant-position:normal;font-variant-caps:normal;font-variant-numeric:normal;font-variant-alternates:normal;font-variant-east-asian:normal;font-feature-settings:normal;font-variation-settings:normal;text-indent:0;text-align:start;text-decoration-line:none;text-decoration-style:solid;text-decoration-color:#000000;letter-spacing:normal;word-spacing:normal;text-transform:none;writing-mode:lr-tb;direction:ltr;text-orientation:mixed;dominant-baseline:auto;baseline-shift:baseline;white-space:pre;opacity:1;vector-effect:none;fill:#5c00ff;fill-opacity:1;stroke:#e0e0e0;stroke-width:0.5;stroke-linecap:butt;stroke-linejoin:miter;stroke-miterlimit:4;stroke-dasharray:none;stroke-dashoffset:0;stroke-opacity:1;-inkscape-stroke:none;stop-color:#000000;stop-opacity:1"
       x="87.071281"
       y="96.43808"
       id="text2-9-1-3"
       transform="scale(1.052379,0.950228)"><tspan
         sodipodi:role="line"
         id="tspan2-5-2-6"
         style="font-style:normal;font-variant:normal;font-weight:normal;font-stretch:normal;font-size:11.7503px;line-height:normal;font-family:sans-serif;font-variant-ligatures:normal;font-variant-position:normal;font-variant-caps:normal;font-variant-numeric:normal;font-variant-alternates:normal;font-variant-east-asian:normal;font-feature-settings:normal;font-variation-settings:normal;text-indent:0;text-align:start;text-decoration-line:none;text-decoration-style:solid;text-decoration-color:#000000;letter-spacing:normal;word-spacing:normal;text-transform:none;writing-mode:lr-tb;direction:ltr;text-orientation:mixed;dominant-baseline:auto;baseline-shift:baseline;white-space:pre;vector-effect:none;fill:#5c00ff;fill-opacity:1;stroke:#e0e0e0;stroke-width:0.5;stroke-linecap:butt;stroke-linejoin:miter;stroke-miterlimit:4;stroke-dasharray:none;stroke-dashoffset:0;stroke-opacity:1;-inkscape-stroke:none;stop-color:#000000;stop-opacity:1"
         x="87.071281"
         y="96.43808">cos(x)</tspan></text>
    <text
       xml:space="preserve"
       style="font-size:11.7503px;line-height:normal;font-family:sans-serif;font-variation-settings:normal;text-decoration-color:#000000;white-space:pre;vector-effect:none;fill:#ad408e;fill-opacity:1;stroke:#e0e0e0;stroke-width:0.499999;stroke-linecap:butt;stroke-linejoin:miter;stroke-miterlimit:4;stroke-dasharray:none;stroke-dashoffset:0;stroke-opacity:1;-inkscape-stroke:none"
       x="63.396626"
       y="135.04774"
       id="text2-6-3-6"
       transform="scale(1.052379,0.950228)"><tspan
         sodipodi:role="line"
         style="fill:#ad408e;fill-opacity:1;stroke:#e0e0e0;stroke-width:0.499999;stroke-opacity:1"
         x="63.396626"
         y="135.04774"
         id="tspan7-0">arcsec(x)</tspan></text>
  </g>
</svg>
