<?xml version="1.0" encoding="UTF-8" standalone="no"?>
<!-- Created with Inkscape (http://www.inkscape.org/) -->

<svg
   width="120.47mm"
   height="72.15287mm"
   viewBox="0 0 120.47 72.15287"
   version="1.1"
   id="svg1"
   inkscape:export-filename="derivative-rules-01.svg"
   inkscape:export-xdpi="96"
   inkscape:export-ydpi="96"
   sodipodi:docname="derivative-rules-01.svg"
   inkscape:version="1.3.2 (091e20ef0f, 2023-11-25, custom)"
   xmlns:inkscape="http://www.inkscape.org/namespaces/inkscape"
   xmlns:sodipodi="http://sodipodi.sourceforge.net/DTD/sodipodi-0.dtd"
   xmlns="http://www.w3.org/2000/svg"
   xmlns:svg="http://www.w3.org/2000/svg">
  <sodipodi:namedview
     id="namedview1"
     pagecolor="#ffffff"
     bordercolor="#000000"
     borderopacity="0.25"
     inkscape:showpageshadow="2"
     inkscape:pageopacity="0.0"
     inkscape:pagecheckerboard="0"
     inkscape:deskcolor="#d1d1d1"
     inkscape:document-units="mm"
     inkscape:zoom="1.5379042"
     inkscape:cx="200.27255"
     inkscape:cy="160.28306"
     inkscape:window-width="1335"
     inkscape:window-height="730"
     inkscape:window-x="27"
     inkscape:window-y="0"
     inkscape:window-maximized="1"
     inkscape:current-layer="layer1" />
  <defs
     id="defs1">
    <clipPath
       id="clipPath1698">
      <rect
         style="opacity:0.98;fill:#ad408e;stroke:#e0e0e0;stroke-width:0.3;-inkscape-stroke:none"
         width="120.47028"
         height="72.15287"
         x="3.3672571"
         y="3.9039552"
         id="rect2" />
    </clipPath>
  </defs>
  <g
     inkscape:label="Layer 1"
     inkscape:groupmode="layer"
     id="layer1"
     transform="translate(-3.3672571,-3.9039552)">
    <path
       style="opacity:0.98;fill:none;fill-opacity:1;stroke:#408ce3;stroke-width:1;stroke-dasharray:none;stroke-opacity:1"
       d="m 3.36726,39.9804 h 120.47 M 63.6024,76.0568 V 3.9039 M 3.36726,149.047 c 0.50831,-2.003 1.01662,-3.981 1.52494,-5.934 0.50831,-1.952 1.01662,-3.879 1.52494,-5.781 0.50831,-1.902 1.01662,-3.778 1.52494,-5.629 0.50831,-1.851 1.01662,-3.677 1.52494,-5.477 0.50831,-1.8 1.01658,-3.575 1.52498,-5.325 0.5083,-1.749 1.0166,-3.474 1.5249,-5.173 0.5083,-1.698 1.0166,-3.372 1.5249,-5.02 0.5084,-1.648 1.0167,-3.271 1.525,-4.868 0.5083,-1.598 1.0166,-3.17 1.5249,-4.717 0.5083,-1.5465 1.0166,-3.0679 1.525,-4.5639 0.5083,-1.4961 1.0166,-2.9667 1.5249,-4.412 0.5083,-1.4454 1.0166,-2.8653 1.5249,-4.2599 0.5084,-1.3946 1.0167,-2.7638 1.525,-4.1077 0.5083,-1.3439 1.0166,-2.6624 1.5249,-3.9556 0.5083,-1.2932 1.0166,-2.561 1.525,-3.8035 0.5083,-1.2424 1.0166,-2.4595 1.5249,-3.6513 0.5083,-1.1917 1.0166,-2.3581 1.5249,-3.4991 0.5084,-1.1411 1.0167,-2.2567 1.525,-3.3471 0.5083,-1.0903 1.0166,-2.1552 1.5249,-3.1949 0.5083,-1.0396 1.0166,-2.0538 1.525,-3.0427 0.5083,-0.989 1.0166,-1.9525 1.5249,-2.8907 0.5083,-0.9382 1.0166,-1.851 1.5249,-2.7385 0.5084,-0.8874 1.0167,-1.7495 1.525,-2.5863 0.5083,-0.8368 1.0166,-1.6481 1.5249,-2.4342 0.5083,-0.7861 1.0167,-1.5467 1.525,-2.2821 0.5083,-0.7353 1.0166,-1.4453 1.5249,-2.1299 0.5083,-0.6847 1.0166,-1.3439 1.5249,-1.9778 0.5084,-0.6339 1.0167,-1.2424 1.525,-1.8257 0.5083,-0.5832 1.0166,-1.141 1.5249,-1.6735 0.5083,-0.5325 1.0167,-1.0396 1.525,-1.5214 0.5083,-0.4818 1.0166,-0.9381 1.5249,-1.3692 0.5083,-0.4311 1.0166,-0.8367 1.5249,-1.2171 0.5084,-0.3804 1.0167,-0.7353 1.525,-1.065 0.5083,-0.3296 1.0166,-0.6339 1.5249,-0.9128 0.5083,-0.2789 1.0167,-0.5325 1.525,-0.7607 0.5083,-0.2282 1.0166,-0.431 1.5249,-0.6085 0.5083,-0.1776 1.0166,-0.3297 1.5249,-0.4565 0.5084,-0.1268 1.0167,-0.2281 1.525,-0.3042 0.5083,-0.0761 1.0166,-0.1268 1.5249,-0.1522 0.5083,-0.0254 1.0167,-0.0253 1.525,0 0.5083,0.0254 1.0166,0.0761 1.5249,0.1522 0.5083,0.076 1.0166,0.1775 1.5249,0.3042 0.5084,0.1268 1.0167,0.279 1.525,0.4565 0.5083,0.1774 1.0166,0.3803 1.5249,0.6085 0.5083,0.2282 1.0167,0.4818 1.525,0.7607 0.5083,0.2789 1.0166,0.5832 1.5249,0.9128 0.5083,0.3296 1.0166,0.6847 1.5249,1.065 0.5084,0.3803 1.0167,0.7861 1.525,1.2171 0.5083,0.431 1.0166,0.8875 1.5249,1.3692 0.5083,0.4818 1.0167,0.989 1.525,1.5214 0.5083,0.5325 1.0166,1.0904 1.5249,1.6735 0.5083,0.5832 1.0166,1.1918 1.525,1.8257 0.5083,0.6339 1.0166,1.2932 1.5249,1.9778 0.5083,0.6846 1.0166,1.3946 1.5249,2.1299 0.5083,0.7353 1.0167,1.4961 1.525,2.2821 0.5083,0.786 1.0166,1.5975 1.5249,2.4342 0.5083,0.8367 1.0166,1.6989 1.525,2.5863 0.5083,0.8875 1.0166,1.8004 1.5249,2.7385 0.5083,0.9382 1.0166,1.9018 1.5249,2.8907 0.5083,0.9888 1.0167,2.0031 1.525,3.0427 0.5083,1.0396 1.0166,2.1046 1.5249,3.1949 0.5083,1.0903 1.0166,2.206 1.525,3.3471 0.5083,1.141 1.0166,2.3074 1.5249,3.4991 0.5083,1.1918 1.0165,2.4089 1.5245,3.6513 0.509,1.2425 1.017,2.5104 1.525,3.8035 0.509,1.2931 1.017,2.6117 1.525,3.9556 0.509,1.3438 1.017,2.7131 1.525,4.1077 0.509,1.3946 1.017,2.8146 1.525,4.2599 0.509,1.4453 1.017,2.916 1.525,4.412 0.508,1.496 1.017,3.0174 1.525,4.5639 0.508,1.547 1.017,3.119 1.525,4.717 0.508,1.597 1.017,3.22 1.525,4.868 0.508,1.648 1.017,3.322 1.525,5.02 0.508,1.699 1.017,3.424 1.525,5.173 0.508,1.75 1.016,3.525 1.525,5.325 0.508,1.8 1.016,3.626 1.525,5.477 0.508,1.851 1.016,3.727 1.525,5.629 0.508,1.902 1.016,3.829 1.525,5.781 0.508,1.953 1.016,3.931 1.525,5.934"
       title="-.125*(x)**2 +.4"
       clip-path="url(#clipPath1698)"
       id="path2" />
    <rect
       style="opacity:0.98;fill:none;fill-opacity:1;stroke:#e0e0e0;stroke-width:1;stroke-dasharray:none;stroke-opacity:1"
       id="rect3"
       width="85.528877"
       height="0.023279482"
       x="-21.269493"
       y="65.496284"
       transform="rotate(-36.243231)" />
    <circle
       style="opacity:0.98;fill:#e0e0e0;fill-opacity:1;stroke:#e0e0e0;stroke-width:1;stroke-dasharray:none;stroke-opacity:1"
       id="path3"
       cx="36.526096"
       cy="54.568176"
       r="1.4014555" />
    <circle
       style="opacity:0.98;fill:#e0e0e0;fill-opacity:1;stroke:#e0e0e0;stroke-width:1;stroke-dasharray:none;stroke-opacity:1"
       id="path3-5"
       cx="68.605713"
       cy="31.138832"
       r="1.4014555" />
  </g>
</svg>
