<?xml version="1.0" encoding="UTF-8" standalone="no"?>
<!-- Created with Inkscape (http://www.inkscape.org/) -->

<svg
   width="130mm"
   height="180mm"
   viewBox="0 0 130 180"
   version="1.1"
   id="svg1"
   inkscape:export-filename="derivative-rules-inverse-trig-04.svg"
   inkscape:export-xdpi="96"
   inkscape:export-ydpi="96"
   sodipodi:docname="derivative-rules-inverse-trig-04.svg"
   xmlns:inkscape="http://www.inkscape.org/namespaces/inkscape"
   xmlns:sodipodi="http://sodipodi.sourceforge.net/DTD/sodipodi-0.dtd"
   xmlns="http://www.w3.org/2000/svg"
   xmlns:svg="http://www.w3.org/2000/svg">
  <sodipodi:namedview
     id="namedview1"
     pagecolor="#2a2a2a"
     bordercolor="#000000"
     borderopacity="0.25"
     inkscape:showpageshadow="2"
     inkscape:pageopacity="0.0"
     inkscape:pagecheckerboard="0"
     inkscape:deskcolor="#d1d1d1"
     inkscape:document-units="mm"
     inkscape:zoom="1.0104823"
     inkscape:cx="320.63898"
     inkscape:cy="398.81947"
     inkscape:window-width="1340"
     inkscape:window-height="435"
     inkscape:window-x="0"
     inkscape:window-y="0"
     inkscape:window-maximized="1"
     inkscape:current-layer="layer1" />
  <defs
     id="defs1">
    <clipPath
       id="clipPath4884">
      <rect
         style="font-variation-settings:normal;opacity:1;vector-effect:none;fill:none;fill-opacity:1;stroke:#408ce3;stroke-width:1;stroke-linecap:butt;stroke-linejoin:miter;stroke-miterlimit:4;stroke-dasharray:none;stroke-dashoffset:0;stroke-opacity:1;-inkscape-stroke:none;stop-color:#000000;stop-opacity:1"
         width="65.327003"
         height="35.428001"
         x="7.9899993"
         y="61.927998"
         id="rect3" />
    </clipPath>
    <clipPath
       id="clipPath7411">
      <rect
         style="font-variation-settings:normal;vector-effect:none;fill:none;fill-opacity:1;stroke:#408ce3;stroke-width:1;stroke-linecap:butt;stroke-linejoin:miter;stroke-miterlimit:4;stroke-dasharray:none;stroke-dashoffset:0;stroke-opacity:1;-inkscape-stroke:none;stop-color:#000000"
         width="65.327003"
         height="35.428001"
         x="7.741189"
         y="103.58132"
         id="rect5" />
    </clipPath>
  </defs>
  <g
     inkscape:label="Layer 1"
     inkscape:groupmode="layer"
     id="layer1">
    <rect
       style="font-variation-settings:normal;vector-effect:none;fill:#e0e0e0;fill-opacity:1;stroke:#e0e0e0;stroke-width:0.499999;stroke-linecap:butt;stroke-linejoin:miter;stroke-miterlimit:4;stroke-dasharray:none;stroke-dashoffset:0;stroke-opacity:1;-inkscape-stroke:none;stop-color:#000000"
       id="rect1-4-8"
       width="1.5466436"
       height="37.465019"
       x="77.270798"
       y="2.6687815" />
    <rect
       style="font-variation-settings:normal;vector-effect:none;fill:#e0e0e0;fill-opacity:1;stroke:#e0e0e0;stroke-width:0.499999;stroke-linecap:butt;stroke-linejoin:miter;stroke-miterlimit:4;stroke-dasharray:none;stroke-dashoffset:0;stroke-opacity:1;-inkscape-stroke:none;stop-color:#000000"
       id="rect1-1"
       width="1.5466436"
       height="84.88562"
       x="35.099525"
       y="-68.744957"
       transform="rotate(63.8451)" />
    <rect
       style="font-variation-settings:normal;fill:none;fill-opacity:1;stroke:#e0e0e0;stroke-width:1.5;stroke-linecap:butt;stroke-linejoin:miter;stroke-miterlimit:4;stroke-dasharray:none;stroke-dashoffset:0;stroke-opacity:1;stop-color:#000000"
       id="rect2"
       width="6.533946"
       height="6.5435534"
       x="71.624207"
       y="33.054695" />
    <rect
       style="fill:#e0e0e0;fill-opacity:1;stroke:#e0e0e0;stroke-width:0.499999;stroke-opacity:1;-inkscape-stroke:none"
       id="rect1-9"
       width="1.6169021"
       height="77.918571"
       x="38.919979"
       y="-78.817024"
       transform="rotate(90)" />
    <rect
       style="font-variation-settings:normal;vector-effect:none;fill:#408ce3;fill-opacity:1;stroke:#408ce3;stroke-width:0;stroke-linecap:butt;stroke-linejoin:miter;stroke-miterlimit:4;stroke-dasharray:none;stroke-dashoffset:0;stroke-opacity:1;-inkscape-stroke:none;stop-color:#000000"
       id="rect1-9-2-21"
       width="1.6169021"
       height="38.207504"
       x="81.137527"
       y="2.3848383" />
    <rect
       style="font-variation-settings:normal;vector-effect:none;fill:#408ce3;fill-opacity:1;stroke:#408ce3;stroke-width:0;stroke-linecap:butt;stroke-linejoin:miter;stroke-miterlimit:4;stroke-dasharray:none;stroke-dashoffset:0;stroke-opacity:1;-inkscape-stroke:none;stop-color:#000000"
       id="rect1-9-2-5-5"
       width="1.6169021"
       height="5.1495633"
       x="39.30624"
       y="-84.45993"
       transform="rotate(90)" />
    <rect
       style="fill:#408ce3;fill-opacity:1;stroke:#408ce3;stroke-width:0;stroke-dasharray:none;stroke-opacity:1"
       id="rect1-9-2-5-9-6"
       width="1.6169021"
       height="5.1495633"
       x="1.3443625"
       y="-84.504189"
       transform="rotate(90)" />
    <rect
       style="fill:#ad408e;fill-opacity:1;stroke:#e0e0e0;stroke-width:0;stroke-dasharray:none;stroke-opacity:1"
       id="rect1-9-2-2"
       width="1.6169021"
       height="76.227806"
       x="42.978878"
       y="-77.285965"
       transform="rotate(90)" />
    <rect
       style="fill:#ad408e;fill-opacity:1;stroke:#e0e0e0;stroke-width:0;stroke-dasharray:none;stroke-opacity:1"
       id="rect1-9-2-5-2"
       width="1.6169021"
       height="5.1495633"
       x="-2.3442702"
       y="-46.301289"
       transform="scale(-1)" />
    <rect
       style="fill:#ad408e;fill-opacity:1;stroke:#e0e0e0;stroke-width:0;stroke-dasharray:none;stroke-opacity:1"
       id="rect1-9-2-5-9-1"
       width="1.6169021"
       height="5.1495633"
       x="-78.80024"
       y="-46.382336"
       transform="scale(-1)" />
    <path
       style="fill:none;fill-opacity:1;stroke:#ececec;stroke-width:2;stroke-dasharray:none"
       id="path1-0"
       sodipodi:type="arc"
       sodipodi:cx="2.0036407"
       sodipodi:cy="40.238232"
       sodipodi:rx="29.035372"
       sodipodi:ry="29.035372"
       sodipodi:start="5.7672906"
       sodipodi:end="6.2786511"
       sodipodi:arc-type="arc"
       d="M 27.260108,25.914696 A 29.035372,29.035372 0 0 1 31.038714,40.10658"
       sodipodi:open="true" />
    <text
       xml:space="preserve"
       style="font-style:normal;font-variant:normal;font-weight:normal;font-stretch:normal;font-size:11.7503px;line-height:normal;font-family:sans-serif;font-variant-ligatures:normal;font-variant-position:normal;font-variant-caps:normal;font-variant-numeric:normal;font-variant-alternates:normal;font-variant-east-asian:normal;font-feature-settings:normal;font-variation-settings:normal;text-indent:0;text-align:start;text-decoration-line:none;text-decoration-style:solid;text-decoration-color:#000000;letter-spacing:normal;word-spacing:normal;text-transform:none;writing-mode:lr-tb;direction:ltr;text-orientation:mixed;dominant-baseline:auto;baseline-shift:baseline;white-space:pre;opacity:1;vector-effect:none;fill:#5c00ff;fill-opacity:1;stroke:#e0e0e0;stroke-width:0.5;stroke-linecap:butt;stroke-linejoin:miter;stroke-miterlimit:4;stroke-dasharray:none;stroke-dashoffset:0;stroke-opacity:1;-inkscape-stroke:none;stop-color:#000000;stop-opacity:1"
       x="20.496784"
       y="40.480968"
       id="text2-65"
       transform="scale(1.052379,0.950228)"><tspan
         sodipodi:role="line"
         id="tspan2-6"
         style="font-style:normal;font-variant:normal;font-weight:normal;font-stretch:normal;font-size:11.7503px;line-height:normal;font-family:sans-serif;font-variant-ligatures:normal;font-variant-position:normal;font-variant-caps:normal;font-variant-numeric:normal;font-variant-alternates:normal;font-variant-east-asian:normal;font-feature-settings:normal;font-variation-settings:normal;text-indent:0;text-align:start;text-decoration-line:none;text-decoration-style:solid;text-decoration-color:#000000;letter-spacing:normal;word-spacing:normal;text-transform:none;writing-mode:lr-tb;direction:ltr;text-orientation:mixed;dominant-baseline:auto;baseline-shift:baseline;white-space:pre;vector-effect:none;fill:#5c00ff;fill-opacity:1;stroke:#e0e0e0;stroke-width:0.5;stroke-linecap:butt;stroke-linejoin:miter;stroke-miterlimit:4;stroke-dasharray:none;stroke-dashoffset:0;stroke-opacity:1;-inkscape-stroke:none;stop-color:#000000;stop-opacity:1"
         x="20.496784"
         y="40.480968">θ</tspan></text>
    <text
       xml:space="preserve"
       style="font-style:normal;font-variant:normal;font-weight:normal;font-stretch:normal;font-size:11.7503px;line-height:normal;font-family:sans-serif;font-variant-ligatures:normal;font-variant-position:normal;font-variant-caps:normal;font-variant-numeric:normal;font-variant-alternates:normal;font-variant-east-asian:normal;font-feature-settings:normal;font-variation-settings:normal;text-indent:0;text-align:start;text-decoration-line:none;text-decoration-style:solid;text-decoration-color:#000000;letter-spacing:normal;word-spacing:normal;text-transform:none;writing-mode:lr-tb;direction:ltr;text-orientation:mixed;dominant-baseline:auto;baseline-shift:baseline;white-space:pre;opacity:1;vector-effect:none;fill:#5c00ff;fill-opacity:1;stroke:#e0e0e0;stroke-width:0.5;stroke-linecap:butt;stroke-linejoin:miter;stroke-miterlimit:4;stroke-dasharray:none;stroke-dashoffset:0;stroke-opacity:1;-inkscape-stroke:none;stop-color:#000000;stop-opacity:1"
       x="5.9345388"
       y="12.333606"
       id="text2-65-8-2-7"
       transform="scale(1.052379,0.950228)"><tspan
         sodipodi:role="line"
         id="tspan2-6-3-4-3"
         style="font-style:normal;font-variant:normal;font-weight:normal;font-stretch:normal;font-size:11.7503px;line-height:normal;font-family:sans-serif;font-variant-ligatures:normal;font-variant-position:normal;font-variant-caps:normal;font-variant-numeric:normal;font-variant-alternates:normal;font-variant-east-asian:normal;font-feature-settings:normal;font-variation-settings:normal;text-indent:0;text-align:start;text-decoration-line:none;text-decoration-style:solid;text-decoration-color:#000000;letter-spacing:normal;word-spacing:normal;text-transform:none;writing-mode:lr-tb;direction:ltr;text-orientation:mixed;dominant-baseline:auto;baseline-shift:baseline;white-space:pre;vector-effect:none;fill:#5c00ff;fill-opacity:1;stroke:#e0e0e0;stroke-width:0.5;stroke-linecap:butt;stroke-linejoin:miter;stroke-miterlimit:4;stroke-dasharray:none;stroke-dashoffset:0;stroke-opacity:1;-inkscape-stroke:none;stop-color:#000000;stop-opacity:1"
         x="5.9345388"
         y="12.333606">√(1 + x²)</tspan></text>
    <text
       xml:space="preserve"
       style="font-size:11.7503px;line-height:normal;font-family:sans-serif;font-variation-settings:normal;text-decoration-color:#000000;white-space:pre;vector-effect:none;fill:#408ce3;fill-opacity:1;stroke:#e0e0e0;stroke-width:0.499999;stroke-linecap:butt;stroke-linejoin:miter;stroke-miterlimit:4;stroke-dasharray:none;stroke-dashoffset:0;stroke-opacity:1;-inkscape-stroke:none"
       x="80.015495"
       y="24.610571"
       id="text2-9"
       transform="scale(1.052379,0.950228)"><tspan
         sodipodi:role="line"
         id="tspan2-5"
         style="fill:#408ce3;fill-opacity:1;stroke:#e0e0e0;stroke-width:0.499999;stroke-opacity:1"
         x="80.015495"
         y="24.610571">x</tspan></text>
    <text
       xml:space="preserve"
       style="font-size:11.7503px;line-height:normal;font-family:sans-serif;font-variation-settings:normal;text-decoration-color:#000000;white-space:pre;vector-effect:none;fill:#ad408e;fill-opacity:1;stroke:#e0e0e0;stroke-width:0.499999;stroke-linecap:butt;stroke-linejoin:miter;stroke-miterlimit:4;stroke-dasharray:none;stroke-dashoffset:0;stroke-opacity:1;-inkscape-stroke:none"
       x="38.173912"
       y="57.190357"
       id="text2-6"
       transform="scale(1.052379,0.950228)"><tspan
         sodipodi:role="line"
         id="tspan2-4"
         style="fill:#ad408e;fill-opacity:1;stroke:#e0e0e0;stroke-width:0.499999;stroke-opacity:1"
         x="38.173912"
         y="57.190357">1</tspan></text>
    <path
       style="font-variation-settings:normal;opacity:1;vector-effect:none;fill:none;fill-opacity:1;stroke:#408ce3;stroke-width:1;stroke-linecap:butt;stroke-linejoin:miter;stroke-miterlimit:4;stroke-dasharray:none;stroke-dashoffset:0;stroke-opacity:1;-inkscape-stroke:none;stop-color:#000000;stop-opacity:1"
       d="M 7.99,79.642 H 73.317 M 40.6535,97.356 V 61.928 M 29.49,101.409 c 0.2757,-1.377 0.5513,-2.5551 0.8269,-3.6086 0.2757,-1.0534 0.5513,-1.9796 0.827,-2.8209 0.2756,-0.8412 0.5513,-1.5964 0.8269,-2.2916 0.2756,-0.6952 0.5513,-1.3298 0.8269,-1.9208 0.2757,-0.591 0.5513,-1.1379 0.8269,-1.6525 0.2757,-0.5145 0.5513,-0.9964 0.827,-1.4538 0.2756,-0.4575 0.5513,-0.8903 0.8269,-1.3046 0.2756,-0.4143 0.5513,-0.81 0.8269,-1.1915 0.2757,-0.3816 0.5513,-0.749 0.8269,-1.1059 0.2757,-0.3569 0.5513,-0.7032 0.827,-1.0418 0.2756,-0.3387 0.5512,-0.6697 0.8269,-0.9955 0.2756,-0.3257 0.5513,-0.6463 0.8269,-0.9639 0.2757,-0.3176 0.5513,-0.6322 0.8269,-0.9457 0.2757,-0.3136 0.5513,-0.6262 0.827,-0.9398 0.2756,-0.3135 0.5512,-0.6281 0.8269,-0.9457 0.2756,-0.3176 0.5513,-0.6382 0.8269,-0.964 0.2757,-0.3257 0.5513,-0.6567 0.8269,-0.9954 0.2757,-0.3386 0.5513,-0.685 0.827,-1.0418 0.2756,-0.3569 0.5512,-0.7243 0.8269,-1.1059 0.2756,-0.3815 0.5513,-0.7772 0.8269,-1.1915 0.2756,-0.4142 0.5513,-0.8471 0.8269,-1.3046 0.2757,-0.4574 0.5513,-0.9393 0.827,-1.4538 0.2756,-0.5145 0.5512,-1.0616 0.8269,-1.6525 0.2756,-0.5909 0.5513,-1.2257 0.8269,-1.9208 0.2756,-0.6951 0.5513,-1.4505 0.8269,-2.2916 0.2757,-0.8411 0.5513,-1.7677 0.827,-2.8209 0.2756,-1.0532 0.5512,-2.2323 0.8269,-3.6089"
       title="tan(x)"
       clip-path="url(#clipPath4884)"
       id="path3"
       sodipodi:nodetypes="cccccccscccscccscsscccccccccsccc" />
    <path
       style="font-variation-settings:normal;opacity:1;vector-effect:none;fill:none;fill-opacity:1;stroke:#ad408e;stroke-width:1;stroke-linecap:butt;stroke-linejoin:miter;stroke-miterlimit:4;stroke-dasharray:none;stroke-dashoffset:0;stroke-opacity:1;-inkscape-stroke:none;stop-color:#000000;stop-opacity:1"
       d="m 7.74119,121.295 h 65.327 M 40.4047,139.009 V 103.581 M 7.74119,132.478 c 0.27564,-0.021 0.55128,-0.043 0.82692,-0.066 0.27564,-0.023 0.55129,-0.046 0.82693,-0.069 0.27564,-0.024 0.55128,-0.048 0.82696,-0.073 0.2756,-0.025 0.5512,-0.051 0.8269,-0.077 0.2756,-0.026 0.5513,-0.053 0.8269,-0.08 0.2757,-0.028 0.5513,-0.056 0.8269,-0.085 0.2757,-0.029 0.5513,-0.059 0.827,-0.09 0.2756,-0.03 0.5512,-0.062 0.8269,-0.094 0.2756,-0.032 0.5513,-0.065 0.8269,-0.099 0.2756,-0.034 0.5513,-0.069 0.8269,-0.106 0.2757,-0.036 0.5513,-0.073 0.827,-0.111 0.2756,-0.038 0.5512,-0.078 0.8269,-0.118 0.2756,-0.041 0.5513,-0.083 0.8269,-0.126 0.2756,-0.043 0.5513,-0.087 0.8269,-0.133 0.2757,-0.046 0.5513,-0.094 0.827,-0.143 0.2756,-0.049 0.5512,-0.099 0.8269,-0.151 0.2756,-0.053 0.5513,-0.107 0.8269,-0.163 0.2756,-0.055 0.5513,-0.113 0.8269,-0.173 0.2757,-0.06 0.5513,-0.122 0.8269,-0.186 0.2757,-0.064 0.5513,-0.131 0.827,-0.2 0.2756,-0.068 0.5513,-0.14 0.8269,-0.214 0.2756,-0.074 0.5513,-0.151 0.8269,-0.231 0.2757,-0.08 0.5513,-0.163 0.8269,-0.249 0.2757,-0.087 0.5513,-0.176 0.827,-0.269 0.2756,-0.094 0.5512,-0.19 0.8269,-0.291 0.2756,-0.101 0.5513,-0.206 0.8269,-0.315 0.2757,-0.109 0.5513,-0.222 0.8269,-0.34 0.2757,-0.118 0.5513,-0.241 0.827,-0.369 0.2756,-0.128 0.5512,-0.261 0.8269,-0.399 0.2756,-0.138 0.5513,-0.282 0.8269,-0.432 0.2757,-0.149 0.5513,-0.304 0.8269,-0.466 0.2757,-0.161 0.5513,-0.328 0.827,-0.501 0.2756,-0.173 0.5512,-0.352 0.8269,-0.538 0.2756,-0.185 0.5513,-0.376 0.8269,-0.573 0.2756,-0.198 0.5513,-0.4 0.8269,-0.609 0.2757,-0.208 0.5513,-0.421 0.827,-0.639 0.2756,-0.218 0.5512,-0.44 0.8269,-0.666 0.2756,-0.226 0.5513,-0.455 0.8269,-0.687 0.2756,-0.232 0.5513,-0.465 0.8269,-0.7 0.2757,-0.234 0.5513,-0.469 0.827,-0.704 0.2756,-0.234 0.5512,-0.468 0.8269,-0.699 0.2756,-0.232 0.5513,-0.461 0.8269,-0.687 0.2756,-0.226 0.5513,-0.448 0.8269,-0.666 0.2757,-0.218 0.5513,-0.432 0.8269,-0.64 0.2757,-0.208 0.5513,-0.411 0.827,-0.608 0.2756,-0.197 0.5513,-0.388 0.8269,-0.574 0.2756,-0.185 0.5513,-0.364 0.8269,-0.537 0.2757,-0.174 0.5513,-0.341 0.8269,-0.502 0.2757,-0.161 0.5513,-0.316 0.827,-0.466 0.2756,-0.149 0.5513,-0.293 0.8269,-0.431 0.2756,-0.139 0.5513,-0.271 0.8269,-0.399 0.2757,-0.128 0.5513,-0.251 0.8269,-0.369 0.2757,-0.118 0.5513,-0.232 0.827,-0.341 0.2756,-0.109 0.5512,-0.213 0.8269,-0.314 0.2756,-0.101 0.5513,-0.198 0.8269,-0.291 0.2757,-0.093 0.5513,-0.183 0.8269,-0.269 0.2757,-0.086 0.5513,-0.169 0.827,-0.249 0.2756,-0.08 0.5512,-0.157 0.8269,-0.231 0.2756,-0.074 0.5513,-0.146 0.8269,-0.215 0.2757,-0.069 0.5513,-0.135 0.8269,-0.199 0.2757,-0.065 0.5513,-0.127 0.827,-0.186 0.2756,-0.06 0.5512,-0.118 0.8269,-0.174 0.2756,-0.056 0.5513,-0.11 0.8269,-0.162 0.2756,-0.052 0.5513,-0.103 0.8269,-0.152 0.2757,-0.049 0.5513,-0.096 0.827,-0.142 0.2756,-0.046 0.5512,-0.09 0.8269,-0.133 0.2756,-0.044 0.5513,-0.085 0.8269,-0.126 0.2756,-0.041 0.5513,-0.08 0.8269,-0.118 0.2757,-0.039 0.5513,-0.076 0.827,-0.112 0.2756,-0.036 0.5512,-0.071 0.8269,-0.105 0.2756,-0.034 0.5513,-0.067 0.8269,-0.1 0.2756,-0.032 0.5513,-0.063 0.8269,-0.094 0.2757,-0.03 0.5513,-0.06 0.8269,-0.089 0.2757,-0.029 0.5513,-0.057 0.827,-0.085 0.2756,-0.027 0.5513,-0.054 0.8269,-0.08 0.2756,-0.027 0.5513,-0.052 0.8269,-0.077 0.2757,-0.025 0.5513,-0.049 0.8269,-0.073 0.2757,-0.024 0.5513,-0.047 0.827,-0.069 0.2756,-0.023 0.5513,-0.045 0.8269,-0.067"
       title="atan(x)"
       clip-path="url(#clipPath7411)"
       id="path5" />
    <text
       xml:space="preserve"
       style="font-size:11.7503px;line-height:normal;font-family:sans-serif;font-variation-settings:normal;text-decoration-color:#000000;white-space:pre;vector-effect:none;fill:#408ce3;fill-opacity:1;stroke:#e0e0e0;stroke-width:0.499999;stroke-linecap:butt;stroke-linejoin:miter;stroke-miterlimit:4;stroke-dasharray:none;stroke-dashoffset:0;stroke-opacity:1;-inkscape-stroke:none"
       x="72.58239"
       y="87.922585"
       id="text2-9-1"
       transform="scale(1.052379,0.950228)"><tspan
         sodipodi:role="line"
         id="tspan2-5-2"
         style="fill:#408ce3;fill-opacity:1;stroke:#e0e0e0;stroke-width:0.499999;stroke-opacity:1"
         x="72.58239"
         y="87.922585">tan(x)</tspan></text>
    <text
       xml:space="preserve"
       style="font-size:11.7503px;line-height:normal;font-family:sans-serif;font-variation-settings:normal;text-decoration-color:#000000;white-space:pre;vector-effect:none;fill:#ad408e;fill-opacity:1;stroke:#e0e0e0;stroke-width:0.499999;stroke-linecap:butt;stroke-linejoin:miter;stroke-miterlimit:4;stroke-dasharray:none;stroke-dashoffset:0;stroke-opacity:1;-inkscape-stroke:none"
       x="72.125641"
       y="131.74718"
       id="text2-6-3-6"
       transform="scale(1.052379,0.950228)"><tspan
         sodipodi:role="line"
         style="fill:#ad408e;fill-opacity:1;stroke:#e0e0e0;stroke-width:0.499999;stroke-opacity:1"
         x="72.125641"
         y="131.74718"
         id="tspan7-0">arctan(x)</tspan></text>
  </g>
</svg>
