<?xml version="1.0" encoding="UTF-8" standalone="no"?>
<!-- Created with Inkscape (http://www.inkscape.org/) -->

<svg
   width="190mm"
   height="46mm"
   viewBox="0 0 190 46"
   version="1.1"
   id="svg1"
   inkscape:export-filename="../public/blog-pictures/angle-arithmetic-formulas-09.svg"
   inkscape:export-xdpi="96"
   inkscape:export-ydpi="96"
   inkscape:version="1.3.2 (091e20ef0f, 2023-11-25, custom)"
   sodipodi:docname="angle-arithmetic-formulas-09.svg"
   xmlns:inkscape="http://www.inkscape.org/namespaces/inkscape"
   xmlns:sodipodi="http://sodipodi.sourceforge.net/DTD/sodipodi-0.dtd"
   xmlns="http://www.w3.org/2000/svg"
   xmlns:svg="http://www.w3.org/2000/svg">
  <sodipodi:namedview
     id="namedview1"
     pagecolor="#897373"
     bordercolor="#000000"
     borderopacity="0.24705882"
     inkscape:showpageshadow="2"
     inkscape:pageopacity="0.0"
     inkscape:pagecheckerboard="0"
     inkscape:deskcolor="#d1d1d1"
     inkscape:document-units="mm"
     showgrid="true"
     inkscape:zoom="1.5311082"
     inkscape:cx="440.20404"
     inkscape:cy="124.41969"
     inkscape:window-width="1335"
     inkscape:window-height="730"
     inkscape:window-x="27"
     inkscape:window-y="0"
     inkscape:window-maximized="1"
     inkscape:current-layer="layer1">
    <inkscape:grid
       id="grid1"
       units="mm"
       originx="0"
       originy="0"
       spacingx="0.99999998"
       spacingy="1"
       empcolor="#0099e5"
       empopacity="0.30196078"
       color="#0099e5"
       opacity="0.14901961"
       empspacing="5"
       dotted="false"
       gridanglex="30"
       gridanglez="30"
       visible="true" />
  </sodipodi:namedview>
  <defs
     id="defs1">
    <clipPath
       id="clipPath7746">
      <rect
         style="opacity:0.98;fill:#808080;stroke:#5c00ff;stroke-width:0.3;-inkscape-stroke:none"
         width="95.59005"
         height="61.110065"
         x="39.716805"
         y="94.57486"
         id="rect2" />
    </clipPath>
    <clipPath
       id="clipPath6483">
      <rect
         style="opacity:0.98;fill:#808080;stroke:#5c00ff;stroke-width:0.3;-inkscape-stroke:none"
         width="95.59005"
         height="61.110065"
         x="39.716805"
         y="94.57486"
         id="rect3" />
    </clipPath>
    <clipPath
       id="clipPath7746-7">
      <rect
         style="opacity:0.98;fill:#808080;stroke:#5c00ff;stroke-width:0.3;-inkscape-stroke:none"
         width="95.59005"
         height="61.110065"
         x="39.716805"
         y="94.57486"
         id="rect2-5" />
    </clipPath>
    <clipPath
       id="clipPath6483-3">
      <rect
         style="opacity:0.98;fill:#808080;stroke:#5c00ff;stroke-width:0.3;-inkscape-stroke:none"
         width="95.59005"
         height="61.110065"
         x="39.716805"
         y="94.57486"
         id="rect3-5" />
    </clipPath>
    <clipPath
       id="clipPath790">
      <rect
         style="opacity:0.98;fill:#808080;stroke:#5c00ff;stroke-width:0.3;-inkscape-stroke:none"
         width="89.525833"
         height="44.909752"
         x="100.2412"
         y="-0.0015290442"
         id="rect4" />
    </clipPath>
    <clipPath
       id="clipPath7635">
      <rect
         style="opacity:0.98;fill:#808080;stroke:#5c00ff;stroke-width:0.3;-inkscape-stroke:none"
         width="94.735481"
         height="39.945641"
         x="0.3246586"
         y="50.476341"
         id="rect7" />
    </clipPath>
    <clipPath
       id="clipPath7746-0">
      <rect
         style="opacity:0.98;fill:#808080;stroke:#5c00ff;stroke-width:0.3;-inkscape-stroke:none"
         width="95.59005"
         height="61.110065"
         x="39.716805"
         y="94.57486"
         id="rect2-9" />
    </clipPath>
    <clipPath
       id="clipPath803">
      <rect
         style="opacity:0.98;fill:#ad408e;stroke:#e0e0e0;stroke-width:0.499999;-inkscape-stroke:none"
         width="65.705315"
         height="35.893887"
         x="9.6172256"
         y="4.4446511"
         id="rect5" />
    </clipPath>
    <clipPath
       id="clipPath6806">
      <rect
         style="opacity:0.98;fill:#ad408e;stroke:#e0e0e0;stroke-width:0.499999;-inkscape-stroke:none"
         width="65.705315"
         height="35.893887"
         x="79.624992"
         y="4.7479162"
         id="rect6" />
    </clipPath>
    <clipPath
       id="clipPath1741">
      <rect
         style="opacity:0.98;fill:#ad408e;stroke:#e0e0e0;stroke-width:0.499999;-inkscape-stroke:none"
         width="65.705315"
         height="35.893887"
         x="149.71758"
         y="5.156858"
         id="rect8" />
    </clipPath>
    <clipPath
       id="clipPath4602">
      <rect
         style="opacity:0.98;fill:#ad408e;stroke:#e0e0e0;stroke-width:0.499999;-inkscape-stroke:none"
         width="30.50968"
         height="35.893887"
         x="149.71758"
         y="5.156858"
         id="rect22" />
    </clipPath>
    <clipPath
       id="clipPath4602-6">
      <rect
         style="opacity:0.98;fill:#ad408e;stroke:#e0e0e0;stroke-width:0.499999;-inkscape-stroke:none"
         width="30.50968"
         height="35.893887"
         x="149.71758"
         y="5.156858"
         id="rect22-1" />
    </clipPath>
    <clipPath
       id="clipPath4602-0">
      <rect
         style="opacity:0.98;fill:#ad408e;stroke:#e0e0e0;stroke-width:0.499999;-inkscape-stroke:none"
         width="30.50968"
         height="35.893887"
         x="149.71758"
         y="5.156858"
         id="rect22-6" />
    </clipPath>
  </defs>
  <g
     inkscape:label="Layer 1"
     inkscape:groupmode="layer"
     id="layer1">
    <path
       style="font-variation-settings:normal;opacity:0.98;vector-effect:none;fill:none;fill-opacity:1;stroke:#408ce3;stroke-width:0.499999;stroke-linecap:butt;stroke-linejoin:miter;stroke-miterlimit:4;stroke-dasharray:none;stroke-dashoffset:0;stroke-opacity:1;-inkscape-stroke:none;stop-color:#000000;stop-opacity:1"
       d="m 9.61723,22.3916 h 65.7053 M 42.4699,40.3385 V 4.4446 M 9.61723,22.3916 c 0.27723,-0.6344 0.55447,-1.2688 0.83167,-1.8952 0.2773,-0.6264 0.5545,-1.2447 0.8318,-1.8473 0.2772,-0.6026 0.5544,-1.1893 0.8317,-1.7528 0.2772,-0.5636 0.5544,-1.1038 0.8317,-1.6141 0.2772,-0.5103 0.5545,-0.9904 0.8317,-1.4346 0.2772,-0.4441 0.5545,-0.852 0.8317,-1.2188 0.2772,-0.3668 0.5545,-0.6922 0.8317,-0.9723 0.2773,-0.2802 0.5545,-0.5148 0.8317,-0.7013 0.2773,-0.1865 0.5545,-0.3245 0.8317,-0.4125 0.2773,-0.0881 0.5545,-0.1259 0.8318,-0.1134 0.2772,0.0126 0.5544,0.0759 0.8317,0.1887 0.2772,0.1129 0.5544,0.2757 0.8317,0.486 0.2772,0.2103 0.5545,0.4685 0.8317,0.771 0.2772,0.3025 0.5545,0.6495 0.8317,1.0365 0.2772,0.387 0.5545,0.8142 0.8317,1.2759 0.2773,0.4617 0.5545,0.9582 0.8317,1.483 0.2773,0.5248 0.5545,1.0781 0.8317,1.6527 0.2773,0.5747 0.5545,1.1708 0.8318,1.7808 0.2772,0.6099 0.5544,1.2338 0.8317,1.8637 0.2772,0.6299 0.5544,1.2658 0.8317,1.8997 0.2772,0.6339 0.5545,1.2657 0.8317,1.8876 0.2772,0.6219 0.5545,1.2338 0.8317,1.828 0.2772,0.5942 0.5545,1.1707 0.8317,1.7222 0.2773,0.5515 0.5545,1.078 0.8317,1.5729 0.2773,0.4949 0.5545,0.958 0.8317,1.3838 0.2773,0.4258 0.5545,0.8139 0.8318,1.1599 0.2772,0.3459 0.5544,0.6493 0.8317,0.9066 0.2772,0.2573 0.5544,0.4682 0.8317,0.6304 0.2772,0.1622 0.5545,0.2754 0.8317,0.3384 0.2772,0.0631 0.5545,0.0756 0.8317,0.0378 0.2772,-0.0377 0.5545,-0.1261 0.8317,-0.2637 0.2773,-0.1376 0.5545,-0.3247 0.8317,-0.5587 0.2773,-0.2339 0.5545,-0.515 0.8317,-0.8394 0.2773,-0.3244 0.5545,-0.6924 0.8318,-1.0991 0.2772,-0.4067 0.5544,-0.8522 0.8317,-1.3309 0.2772,-0.4787 0.5545,-0.9906 0.8317,-1.5292 0.2772,-0.5385 0.5545,-1.1039 0.8317,-1.6887 0.2772,-0.5849 0.5545,-1.1894 0.8317,-1.8058 0.2773,-0.6164 0.5545,-1.2448 0.8317,-1.8772 0.2773,-0.6324 0.5545,-1.2688 0.8317,-1.9012 0.2773,-0.6324 0.5545,-1.2607 0.8318,-1.8772 0.2772,-0.6164 0.5544,-1.2208 0.8317,-1.8058 0.2772,-0.5849 0.5544,-1.1501 0.8317,-1.6887 0.2772,-0.5387 0.5545,-1.0505 0.8317,-1.5292 0.2772,-0.4787 0.5545,-0.9242 0.8317,-1.3309 0.2772,-0.4068 0.5545,-0.7746 0.8317,-1.0991 0.2773,-0.3245 0.5545,-0.6054 0.8317,-0.8394 0.2773,-0.2341 0.5545,-0.421 0.8317,-0.5587 0.2773,-0.1377 0.5545,-0.2259 0.8318,-0.2638 0.2772,-0.0378 0.5544,-0.0251 0.8317,0.0378 0.2772,0.063 0.5544,0.1763 0.8317,0.3385 0.2772,0.1621 0.5545,0.3732 0.8317,0.6304 0.2772,0.2572 0.5545,0.5608 0.8317,0.9066 0.2772,0.3459 0.5545,0.7342 0.8317,1.1599 0.2773,0.4257 0.5545,0.889 0.8317,1.3838 0.2773,0.4949 0.5545,1.0214 0.8317,1.5729 0.2773,0.5515 0.5545,1.128 0.8318,1.7222 0.2772,0.5941 0.5544,1.2061 0.8317,1.828 0.2772,0.6218 0.5544,1.2537 0.8317,1.8876 0.2772,0.6339 0.5545,1.2698 0.8317,1.8997 0.2772,0.6299 0.5545,1.2537 0.8317,1.8637 0.2772,0.61 0.5545,1.2061 0.8317,1.7807 0.2773,0.5747 0.5545,1.1279 0.8317,1.6528 0.2773,0.5248 0.5545,1.0212 0.8317,1.483 0.2773,0.4618 0.5545,0.8888 0.8318,1.2759 0.2772,0.3871 0.5544,0.7339 0.8317,1.0365 0.2772,0.3026 0.5544,0.5606 0.8317,0.771 0.2772,0.2104 0.5545,0.373 0.8317,0.486 0.2772,0.1129 0.5545,0.176 0.8317,0.1887 0.2772,0.0126 0.5545,-0.0254 0.8317,-0.1134 0.2773,-0.0879 0.5545,-0.2261 0.8317,-0.4125 0.2773,-0.1864 0.5545,-0.4212 0.8318,-0.7013 0.2772,-0.28 0.5544,-0.6056 0.8317,-0.9723 0.2772,-0.3667 0.5544,-0.7748 0.8317,-1.2188 0.2772,-0.4441 0.5545,-0.9244 0.8317,-1.4346 0.2772,-0.5102 0.5545,-1.0506 0.8317,-1.6141 0.2772,-0.5635 0.5545,-1.1503 0.8317,-1.7528 0.2773,-0.6026 0.5545,-1.221 0.8317,-1.8473 0.2773,-0.6264 0.5545,-1.2608 0.8317,-1.8952"
       title="sin(x)"
       clip-path="url(#clipPath803)"
       id="path5"
       transform="translate(-4.7625002)" />
    <path
       style="font-variation-settings:normal;opacity:0.98;vector-effect:none;fill:none;fill-opacity:1;stroke:#ad408e;stroke-width:0.499999;stroke-linecap:butt;stroke-linejoin:miter;stroke-miterlimit:4;stroke-dasharray:none;stroke-dashoffset:0;stroke-opacity:1;-inkscape-stroke:none;stop-color:#000000;stop-opacity:1"
       d="m 79.625,22.6949 h 65.7053 M 112.478,40.6418 V 4.7479 m -32.853,5.9823 c 0.2772,10e-5 0.5545,0.0506 0.8317,0.1511 0.2772,0.1004 0.5545,0.2509 0.8317,0.4493 0.2773,0.1984 0.5545,0.445 0.8317,0.7363 0.2773,0.2913 0.5545,0.6277 0.8317,1.0046 0.2773,0.3769 0.5545,0.7946 0.8318,1.2476 0.2772,0.453 0.5544,0.9415 0.8317,1.4591 0.2772,0.5176 0.5544,1.0645 0.8317,1.6337 0.2772,0.5692 0.5545,1.1608 0.8317,1.7672 0.2772,0.6063 0.5545,1.2276 0.8317,1.8558 0.2772,0.6283 0.5545,1.2636 0.8317,1.8978 0.2773,0.6343 0.5545,1.2676 0.8317,1.8918 0.2773,0.6243 0.5545,1.2395 0.8317,1.8381 0.2773,0.5985 0.5545,1.1802 0.8318,1.7378 0.2772,0.5576 0.5544,1.0911 0.8317,1.5938 0.2772,0.5027 0.5544,0.9744 0.8317,1.4095 0.2772,0.435 0.5545,0.8331 0.8317,1.1895 0.2772,0.3565 0.5545,0.6709 0.8317,0.9397 0.2772,0.2688 0.5545,0.4916 0.8317,0.666 0.2773,0.1744 0.5545,0.3 0.8317,0.3755 0.2773,0.0756 0.5545,0.1008 0.8317,0.0756 0.2773,-0.0251 0.5545,-0.101 0.8318,-0.2262 0.2772,-0.1253 0.5544,-0.3003 0.8317,-0.5225 0.2772,-0.2222 0.5544,-0.4918 0.8317,-0.8053 0.2772,-0.3136 0.5545,-0.6711 0.8317,-1.068 0.2772,-0.397 0.5549,-0.8334 0.8319,-1.3037 0.277,-0.4703 0.554,-0.9746 0.832,-1.5064 0.277,-0.5318 0.554,-1.0912 0.831,-1.6711 0.277,-0.5799 0.555,-1.1803 0.832,-1.7936 0.277,-0.6133 0.554,-1.2395 0.832,-1.8708 0.277,-0.6313 0.554,-1.2675 0.831,-1.9008 0.278,-0.6333 0.555,-1.2635 0.832,-1.8828 0.277,-0.6193 0.555,-1.2276 0.832,-1.8173 0.277,-0.5896 0.554,-1.1606 0.832,-1.7058 0.277,-0.5452 0.554,-1.0644 0.831,-1.5513 0.277,-0.4869 0.555,-0.9413 0.832,-1.3576 0.277,-0.4164 0.554,-0.7944 0.832,-1.1297 0.277,-0.3353 0.554,-0.6275 0.831,-0.8732 0.278,-0.2457 0.555,-0.4447 0.832,-0.5947 0.277,-0.15 0.555,-0.2507 0.832,-0.3011 0.277,-0.0505 0.554,-0.0504 0.832,0 0.277,0.0503 0.554,0.1512 0.831,0.3011 0.277,0.1499 0.555,0.349 0.832,0.5947 0.277,0.2456 0.554,0.538 0.832,0.8732 0.277,0.3352 0.554,0.7134 0.831,1.1297 0.278,0.4162 0.555,0.8708 0.832,1.3576 0.277,0.4869 0.555,1.0062 0.832,1.5513 0.277,0.5451 0.554,1.1162 0.831,1.7058 0.278,0.5897 0.555,1.198 0.832,1.8173 0.277,0.6193 0.555,1.2495 0.832,1.8828 0.277,0.6333 0.554,1.2695 0.832,1.9008 0.277,0.6313 0.554,1.2575 0.831,1.8708 0.278,0.6134 0.555,1.2137 0.832,1.7936 0.277,0.5799 0.555,1.1393 0.832,1.6711 0.277,0.5319 0.554,1.036 0.831,1.5064 0.278,0.4704 0.555,0.9067 0.832,1.3037 0.277,0.3969 0.555,0.7544 0.832,1.068 0.277,0.3135 0.554,0.583 0.832,0.8053 0.277,0.2223 0.554,0.3971 0.831,0.5225 0.278,0.1253 0.555,0.201 0.832,0.2262 0.277,0.0253 0.555,-10e-5 0.832,-0.0756 0.277,-0.0754 0.554,-0.2012 0.831,-0.3755 0.278,-0.1743 0.555,-0.3973 0.832,-0.666 0.277,-0.2687 0.555,-0.5833 0.832,-0.9397 0.277,-0.3563 0.554,-0.7546 0.832,-1.1895 0.277,-0.435 0.554,-0.9069 0.831,-1.4095 0.278,-0.5026 0.555,-1.0362 0.832,-1.5938 0.277,-0.5576 0.555,-1.1394 0.832,-1.7378 0.277,-0.5985 0.554,-1.2138 0.831,-1.8381 0.278,-0.6242 0.555,-1.2575 0.832,-1.8918 0.277,-0.6342 0.555,-1.2695 0.832,-1.8978 0.277,-0.6282 0.554,-1.2494 0.832,-1.8558 0.277,-0.6065 0.554,-1.1979 0.831,-1.7672 0.278,-0.5692 0.555,-1.116 0.832,-1.6337 0.277,-0.5177 0.555,-1.006 0.832,-1.4591 0.277,-0.453 0.554,-0.8706 0.831,-1.2476 0.278,-0.377 0.555,-0.7132 0.832,-1.0046 0.277,-0.2914 0.555,-0.5378 0.832,-0.7363 0.277,-0.1985 0.554,-0.3488 0.832,-0.4493 0.277,-0.1006 0.554,-0.151 0.831,-0.1511"
       title="cos(x)"
       clip-path="url(#clipPath6806)"
       id="path6"
       transform="translate(-2.1166667)" />
    <path
       style="opacity:0.98;fill:none;stroke:#5c00ff;stroke-width:0.499999;stroke-opacity:1;-inkscape-stroke:none"
       d="m 149.718,23.1038 h 30.5097 M 164.972,41.0507 V 5.1568 m -15.254,54.7703 c 0.128,-1.3285 0.257,-2.5283 0.386,-3.6317 0.129,-1.1034 0.257,-2.1099 0.386,-3.0425 0.129,-0.9326 0.257,-1.7907 0.386,-2.5907 0.129,-0.8001 0.258,-1.5417 0.386,-2.2369 0.129,-0.6952 0.258,-1.3437 0.387,-1.9546 0.128,-0.6108 0.257,-1.1838 0.386,-1.7258 0.129,-0.542 0.257,-1.0528 0.386,-1.5379 0.129,-0.4851 0.257,-0.9443 0.386,-1.3819 0.129,-0.4375 0.258,-0.8533 0.386,-1.2507 0.129,-0.3974 0.258,-0.7764 0.387,-1.1397 0.128,-0.3632 0.257,-0.7107 0.386,-1.0447 0.128,-0.334 0.257,-0.6544 0.386,-0.9632 0.129,-0.3087 0.257,-0.6056 0.386,-0.8924 0.129,-0.2868 0.258,-0.5633 0.386,-0.8309 0.129,-0.2676 0.258,-0.5262 0.387,-0.777 0.128,-0.2507 0.257,-0.4936 0.386,-0.7296 0.128,-0.2359 0.257,-0.4649 0.386,-0.6878 0.129,-0.2228 0.257,-0.4395 0.386,-0.6507 0.129,-0.2112 0.258,-0.417 0.386,-0.6178 0.129,-0.2009 0.258,-0.3969 0.387,-0.5885 0.128,-0.1917 0.257,-0.379 0.386,-0.5624 0.128,-0.1834 0.257,-0.3629 0.386,-0.5389 0.129,-0.1761 0.257,-0.3486 0.386,-0.5181 0.129,-0.1694 0.258,-0.3357 0.386,-0.4992 0.129,-0.1635 0.258,-0.3243 0.387,-0.4825 0.128,-0.1582 0.257,-0.3139 0.386,-0.4674 0.128,-0.1535 0.257,-0.3048 0.386,-0.4541 0.129,-0.1492 0.257,-0.2965 0.386,-0.442 0.129,-0.1455 0.258,-0.2892 0.386,-0.4314 0.129,-0.1422 0.258,-0.2827 0.387,-0.422 0.128,-0.1392 0.257,-0.277 0.386,-0.4136 0.128,-0.1367 0.257,-0.2721 0.386,-0.4065 0.129,-0.1344 0.257,-0.2677 0.386,-0.4002 0.129,-0.1324 0.258,-0.264 0.386,-0.3949 0.129,-0.1308 0.258,-0.2609 0.387,-0.3904 0.128,-0.1295 0.257,-0.2585 0.386,-0.3869 0.128,-0.1285 0.257,-0.2565 0.386,-0.3842 0.129,-0.1277 0.257,-0.255 0.386,-0.3822 0.129,-0.1272 0.258,-0.2542 0.386,-0.3811 0.129,-0.1269 0.258,-0.2537 0.387,-0.3806 0.128,-0.1269 0.257,-0.2539 0.386,-0.3811 0.128,-0.1272 0.257,-0.2545 0.386,-0.3822 0.129,-0.1277 0.257,-0.2557 0.386,-0.3842 0.129,-0.1284 0.258,-0.2574 0.386,-0.3869 0.129,-0.1295 0.258,-0.2596 0.387,-0.3904 0.128,-0.1309 0.257,-0.2625 0.386,-0.3949 0.128,-0.1325 0.257,-0.2658 0.386,-0.4002 0.129,-0.1344 0.257,-0.2698 0.386,-0.4065 0.129,-0.1366 0.258,-0.2744 0.386,-0.4136 0.129,-0.1392 0.258,-0.2798 0.387,-0.422 0.128,-0.1422 0.257,-0.2859 0.386,-0.4314 0.128,-0.1455 0.257,-0.2928 0.386,-0.442 0.129,-0.1493 0.257,-0.3006 0.386,-0.4541 0.129,-0.1534 0.258,-0.3092 0.386,-0.4674 0.129,-0.1582 0.258,-0.319 0.386,-0.4825 0.129,-0.1635 0.258,-0.3298 0.387,-0.4992 0.128,-0.1695 0.257,-0.342 0.386,-0.5181 0.129,-0.176 0.257,-0.3555 0.386,-0.5389 0.129,-0.1834 0.258,-0.3707 0.386,-0.5624 0.129,-0.1916 0.258,-0.3876 0.386,-0.5885 0.129,-0.2008 0.258,-0.4066 0.387,-0.6178 0.128,-0.2112 0.257,-0.4279 0.386,-0.6507 0.129,-0.2229 0.257,-0.4519 0.386,-0.6878 0.129,-0.236 0.258,-0.4789 0.386,-0.7296 0.129,-0.2508 0.258,-0.5094 0.386,-0.777 0.129,-0.2676 0.258,-0.54415 0.387,-0.8309 0.128,-0.28674 0.257,-0.58374 0.386,-0.89243 0.129,-0.3087 0.257,-0.62916 0.386,-0.96313 0.129,-0.33397 0.258,-0.68153 0.386,-1.04477 0.129,-0.36325 0.258,-0.74227 0.386,-1.13966 0.129,-0.39738 0.258,-0.81323 0.387,-1.25073 0.128,-0.43751 0.257,-0.89678 0.386,-1.38183 0.129,-0.48505 0.257,-0.99601 0.386,-1.53795 0.129,-0.541951 0.258,-1.115043 0.386,-1.725829 0.129,-0.610786 0.258,-1.259451 0.386,-1.954571 0.129,-0.69513 0.258,-1.43692 0.387,-2.23688 0.128,-0.79995 0.257,-1.6583 0.386,-2.59074 0.129,-0.93245 0.257,-1.93926 0.386,-3.04248 0.129,-1.1032 0.258,-2.3032 0.386,-3.6317"
       title="tan(x)"
       clip-path="url(#clipPath4602)"
       id="path22"
       transform="translate(0.52916667)" />
    <text
       xml:space="preserve"
       style="font-style:normal;font-variant:normal;font-weight:normal;font-stretch:normal;font-size:6.73314px;line-height:normal;font-family:sans-serif;font-variant-ligatures:normal;font-variant-position:normal;font-variant-caps:normal;font-variant-numeric:normal;font-variant-alternates:normal;font-variant-east-asian:normal;font-feature-settings:normal;font-variation-settings:normal;text-indent:0;text-align:start;text-decoration-line:none;text-decoration-style:solid;text-decoration-color:#000000;letter-spacing:normal;word-spacing:normal;text-transform:none;writing-mode:lr-tb;direction:ltr;text-orientation:mixed;dominant-baseline:auto;baseline-shift:baseline;white-space:pre;opacity:0.98;vector-effect:none;fill:#408ce3;fill-opacity:1;stroke:#e0e0e0;stroke-width:0.3;stroke-linecap:butt;stroke-linejoin:miter;stroke-miterlimit:4;stroke-dasharray:none;stroke-dashoffset:0;stroke-opacity:1;-inkscape-stroke:none;stop-color:#000000;stop-opacity:1"
       x="48.227173"
       y="9.9172287"
       id="text22"
       transform="scale(1.0037198,0.99629399)"><tspan
         sodipodi:role="line"
         id="tspan22"
         style="font-style:normal;font-variant:normal;font-weight:normal;font-stretch:normal;font-size:6.73314px;line-height:normal;font-family:sans-serif;font-variant-ligatures:normal;font-variant-position:normal;font-variant-caps:normal;font-variant-numeric:normal;font-variant-alternates:normal;font-variant-east-asian:normal;font-feature-settings:normal;font-variation-settings:normal;text-indent:0;text-align:start;text-decoration-line:none;text-decoration-style:solid;text-decoration-color:#000000;letter-spacing:normal;word-spacing:normal;text-transform:none;writing-mode:lr-tb;direction:ltr;text-orientation:mixed;dominant-baseline:auto;baseline-shift:baseline;white-space:pre;vector-effect:none;fill:#408ce3;fill-opacity:1;stroke:#e0e0e0;stroke-width:0.3;stroke-linecap:butt;stroke-linejoin:miter;stroke-miterlimit:4;stroke-dasharray:none;stroke-dashoffset:0;stroke-opacity:1;-inkscape-stroke:none;stop-color:#000000;stop-opacity:1"
         x="48.227173"
         y="9.9172287">(x,y)</tspan></text>
    <text
       xml:space="preserve"
       style="font-style:normal;font-variant:normal;font-weight:normal;font-stretch:normal;font-size:6.73314px;line-height:normal;font-family:sans-serif;font-variant-ligatures:normal;font-variant-position:normal;font-variant-caps:normal;font-variant-numeric:normal;font-variant-alternates:normal;font-variant-east-asian:normal;font-feature-settings:normal;font-variation-settings:normal;text-indent:0;text-align:start;text-decoration-line:none;text-decoration-style:solid;text-decoration-color:#000000;letter-spacing:normal;word-spacing:normal;text-transform:none;writing-mode:lr-tb;direction:ltr;text-orientation:mixed;dominant-baseline:auto;baseline-shift:baseline;white-space:pre;opacity:0.98;vector-effect:none;fill:#ad408e;fill-opacity:1;stroke:#e0e0e0;stroke-width:0.3;stroke-linecap:butt;stroke-linejoin:miter;stroke-miterlimit:4;stroke-dasharray:none;stroke-dashoffset:0;stroke-opacity:1;-inkscape-stroke:none;stop-color:#000000;stop-opacity:1"
       x="117.49432"
       y="17.921263"
       id="text22-0"
       transform="scale(1.0037198,0.99629399)"><tspan
         sodipodi:role="line"
         id="tspan22-6"
         style="font-style:normal;font-variant:normal;font-weight:normal;font-stretch:normal;font-size:6.73314px;line-height:normal;font-family:sans-serif;font-variant-ligatures:normal;font-variant-position:normal;font-variant-caps:normal;font-variant-numeric:normal;font-variant-alternates:normal;font-variant-east-asian:normal;font-feature-settings:normal;font-variation-settings:normal;text-indent:0;text-align:start;text-decoration-line:none;text-decoration-style:solid;text-decoration-color:#000000;letter-spacing:normal;word-spacing:normal;text-transform:none;writing-mode:lr-tb;direction:ltr;text-orientation:mixed;dominant-baseline:auto;baseline-shift:baseline;white-space:pre;vector-effect:none;fill:#ad408e;fill-opacity:1;stroke:#e0e0e0;stroke-width:0.3;stroke-linecap:butt;stroke-linejoin:miter;stroke-miterlimit:4;stroke-dasharray:none;stroke-dashoffset:0;stroke-opacity:1;-inkscape-stroke:none;stop-color:#000000;stop-opacity:1"
         x="117.49432"
         y="17.921263">(x,y)</tspan></text>
    <text
       xml:space="preserve"
       style="font-style:normal;font-variant:normal;font-weight:normal;font-stretch:normal;font-size:6.73314px;line-height:normal;font-family:sans-serif;font-variant-ligatures:normal;font-variant-position:normal;font-variant-caps:normal;font-variant-numeric:normal;font-variant-alternates:normal;font-variant-east-asian:normal;font-feature-settings:normal;font-variation-settings:normal;text-indent:0;text-align:start;text-decoration-line:none;text-decoration-style:solid;text-decoration-color:#000000;letter-spacing:normal;word-spacing:normal;text-transform:none;writing-mode:lr-tb;direction:ltr;text-orientation:mixed;dominant-baseline:auto;baseline-shift:baseline;white-space:pre;opacity:0.98;vector-effect:none;fill:#ad408e;fill-opacity:1;stroke:#e0e0e0;stroke-width:0.3;stroke-linecap:butt;stroke-linejoin:miter;stroke-miterlimit:4;stroke-dasharray:none;stroke-dashoffset:0;stroke-opacity:1;-inkscape-stroke:none;stop-color:#000000;stop-opacity:1"
       x="87.690201"
       y="18.272554"
       id="text22-0-8"
       transform="scale(1.0037198,0.99629399)"><tspan
         sodipodi:role="line"
         id="tspan22-6-7"
         style="font-style:normal;font-variant:normal;font-weight:normal;font-stretch:normal;font-size:6.73314px;line-height:normal;font-family:sans-serif;font-variant-ligatures:normal;font-variant-position:normal;font-variant-caps:normal;font-variant-numeric:normal;font-variant-alternates:normal;font-variant-east-asian:normal;font-feature-settings:normal;font-variation-settings:normal;text-indent:0;text-align:start;text-decoration-line:none;text-decoration-style:solid;text-decoration-color:#000000;letter-spacing:normal;word-spacing:normal;text-transform:none;writing-mode:lr-tb;direction:ltr;text-orientation:mixed;dominant-baseline:auto;baseline-shift:baseline;white-space:pre;vector-effect:none;fill:#ad408e;fill-opacity:1;stroke:#e0e0e0;stroke-width:0.3;stroke-linecap:butt;stroke-linejoin:miter;stroke-miterlimit:4;stroke-dasharray:none;stroke-dashoffset:0;stroke-opacity:1;-inkscape-stroke:none;stop-color:#000000;stop-opacity:1"
         x="87.690201"
         y="18.272554">(-x,y)</tspan></text>
    <text
       xml:space="preserve"
       style="font-style:normal;font-variant:normal;font-weight:normal;font-stretch:normal;font-size:6.73314px;line-height:normal;font-family:sans-serif;font-variant-ligatures:normal;font-variant-position:normal;font-variant-caps:normal;font-variant-numeric:normal;font-variant-alternates:normal;font-variant-east-asian:normal;font-feature-settings:normal;font-variation-settings:normal;text-indent:0;text-align:start;text-decoration-line:none;text-decoration-style:solid;text-decoration-color:#000000;letter-spacing:normal;word-spacing:normal;text-transform:none;writing-mode:lr-tb;direction:ltr;text-orientation:mixed;dominant-baseline:auto;baseline-shift:baseline;white-space:pre;opacity:0.98;vector-effect:none;fill:#5c00ff;fill-opacity:1;stroke:#e0e0e0;stroke-width:0.3;stroke-linecap:butt;stroke-linejoin:miter;stroke-miterlimit:4;stroke-dasharray:none;stroke-dashoffset:0;stroke-opacity:1;-inkscape-stroke:none;stop-color:#000000;stop-opacity:1"
       x="173.23787"
       y="18.813158"
       id="text22-0-8-2"
       transform="scale(1.0037198,0.99629399)"><tspan
         sodipodi:role="line"
         id="tspan22-6-7-3"
         style="font-style:normal;font-variant:normal;font-weight:normal;font-stretch:normal;font-size:6.73314px;line-height:normal;font-family:sans-serif;font-variant-ligatures:normal;font-variant-position:normal;font-variant-caps:normal;font-variant-numeric:normal;font-variant-alternates:normal;font-variant-east-asian:normal;font-feature-settings:normal;font-variation-settings:normal;text-indent:0;text-align:start;text-decoration-line:none;text-decoration-style:solid;text-decoration-color:#000000;letter-spacing:normal;word-spacing:normal;text-transform:none;writing-mode:lr-tb;direction:ltr;text-orientation:mixed;dominant-baseline:auto;baseline-shift:baseline;white-space:pre;vector-effect:none;fill:#5c00ff;fill-opacity:1;stroke:#e0e0e0;stroke-width:0.3;stroke-linecap:butt;stroke-linejoin:miter;stroke-miterlimit:4;stroke-dasharray:none;stroke-dashoffset:0;stroke-opacity:1;-inkscape-stroke:none;stop-color:#000000;stop-opacity:1"
         x="173.23787"
         y="18.813158">(x,y)</tspan></text>
    <text
       xml:space="preserve"
       style="font-style:normal;font-variant:normal;font-weight:normal;font-stretch:normal;font-size:6.73314px;line-height:normal;font-family:sans-serif;font-variant-ligatures:normal;font-variant-position:normal;font-variant-caps:normal;font-variant-numeric:normal;font-variant-alternates:normal;font-variant-east-asian:normal;font-feature-settings:normal;font-variation-settings:normal;text-indent:0;text-align:start;text-decoration-line:none;text-decoration-style:solid;text-decoration-color:#000000;letter-spacing:normal;word-spacing:normal;text-transform:none;writing-mode:lr-tb;direction:ltr;text-orientation:mixed;dominant-baseline:auto;baseline-shift:baseline;white-space:pre;opacity:0.98;vector-effect:none;fill:#5c00ff;fill-opacity:1;stroke:#e0e0e0;stroke-width:0.3;stroke-linecap:butt;stroke-linejoin:miter;stroke-miterlimit:4;stroke-dasharray:none;stroke-dashoffset:0;stroke-opacity:1;-inkscape-stroke:none;stop-color:#000000;stop-opacity:1"
       x="141.03955"
       y="30.293324"
       id="text22-0-8-2-2"
       transform="scale(1.0037198,0.99629399)"><tspan
         sodipodi:role="line"
         id="tspan22-6-7-3-2"
         style="font-style:normal;font-variant:normal;font-weight:normal;font-stretch:normal;font-size:6.73314px;line-height:normal;font-family:sans-serif;font-variant-ligatures:normal;font-variant-position:normal;font-variant-caps:normal;font-variant-numeric:normal;font-variant-alternates:normal;font-variant-east-asian:normal;font-feature-settings:normal;font-variation-settings:normal;text-indent:0;text-align:start;text-decoration-line:none;text-decoration-style:solid;text-decoration-color:#000000;letter-spacing:normal;word-spacing:normal;text-transform:none;writing-mode:lr-tb;direction:ltr;text-orientation:mixed;dominant-baseline:auto;baseline-shift:baseline;white-space:pre;vector-effect:none;fill:#5c00ff;fill-opacity:1;stroke:#e0e0e0;stroke-width:0.3;stroke-linecap:butt;stroke-linejoin:miter;stroke-miterlimit:4;stroke-dasharray:none;stroke-dashoffset:0;stroke-opacity:1;-inkscape-stroke:none;stop-color:#000000;stop-opacity:1"
         x="141.03955"
         y="30.293324">(-x,-y)</tspan></text>
    <text
       xml:space="preserve"
       style="font-style:normal;font-variant:normal;font-weight:normal;font-stretch:normal;font-size:6.73314px;line-height:normal;font-family:sans-serif;font-variant-ligatures:normal;font-variant-position:normal;font-variant-caps:normal;font-variant-numeric:normal;font-variant-alternates:normal;font-variant-east-asian:normal;font-feature-settings:normal;font-variation-settings:normal;text-indent:0;text-align:start;text-decoration-line:none;text-decoration-style:solid;text-decoration-color:#000000;letter-spacing:normal;word-spacing:normal;text-transform:none;writing-mode:lr-tb;direction:ltr;text-orientation:mixed;dominant-baseline:auto;baseline-shift:baseline;white-space:pre;opacity:0.98;vector-effect:none;fill:#408ce3;fill-opacity:1;stroke:#e0e0e0;stroke-width:0.3;stroke-linecap:butt;stroke-linejoin:miter;stroke-miterlimit:4;stroke-dasharray:none;stroke-dashoffset:0;stroke-opacity:1;-inkscape-stroke:none;stop-color:#000000;stop-opacity:1"
       x="10.415858"
       y="38.347908"
       id="text22-7"
       transform="scale(1.0037198,0.99629399)"><tspan
         sodipodi:role="line"
         id="tspan22-0"
         style="font-style:normal;font-variant:normal;font-weight:normal;font-stretch:normal;font-size:6.73314px;line-height:normal;font-family:sans-serif;font-variant-ligatures:normal;font-variant-position:normal;font-variant-caps:normal;font-variant-numeric:normal;font-variant-alternates:normal;font-variant-east-asian:normal;font-feature-settings:normal;font-variation-settings:normal;text-indent:0;text-align:start;text-decoration-line:none;text-decoration-style:solid;text-decoration-color:#000000;letter-spacing:normal;word-spacing:normal;text-transform:none;writing-mode:lr-tb;direction:ltr;text-orientation:mixed;dominant-baseline:auto;baseline-shift:baseline;white-space:pre;vector-effect:none;fill:#408ce3;fill-opacity:1;stroke:#e0e0e0;stroke-width:0.3;stroke-linecap:butt;stroke-linejoin:miter;stroke-miterlimit:4;stroke-dasharray:none;stroke-dashoffset:0;stroke-opacity:1;-inkscape-stroke:none;stop-color:#000000;stop-opacity:1"
         x="10.415858"
         y="38.347908">(-x,-y)</tspan></text>
    <text
       xml:space="preserve"
       style="font-size:6.73314px;line-height:normal;font-family:sans-serif;text-decoration-color:#000000;white-space:pre;opacity:0.98;fill:#408ce3;fill-opacity:1;stroke:#e0e0e0;stroke-width:0.3;stroke-dasharray:none"
       x="4.7834005"
       y="10.112934"
       id="text22-7-3"
       transform="scale(1.0037198,0.99629399)"><tspan
         sodipodi:role="line"
         id="tspan22-0-6"
         style="fill:#408ce3;fill-opacity:1;stroke-width:0.3;stroke-dasharray:none"
         x="4.7834005"
         y="10.112934">sin(x)</tspan></text>
    <text
       xml:space="preserve"
       style="font-size:6.73314px;line-height:normal;font-family:sans-serif;text-decoration-color:#000000;white-space:pre;opacity:0.98;fill:#408ce3;fill-opacity:1;stroke:#e0e0e0;stroke-width:0.3;stroke-dasharray:none"
       x="55.222679"
       y="39.793312"
       id="text22-7-3-9"
       transform="scale(1.0037198,0.99629399)"><tspan
         sodipodi:role="line"
         id="tspan22-0-6-1"
         style="fill:#408ce3;fill-opacity:1;stroke-width:0.3;stroke-dasharray:none"
         x="55.222679"
         y="39.793312">ODD</tspan></text>
    <text
       xml:space="preserve"
       style="font-style:normal;font-variant:normal;font-weight:normal;font-stretch:normal;font-size:6.73314px;line-height:normal;font-family:sans-serif;font-variant-ligatures:normal;font-variant-position:normal;font-variant-caps:normal;font-variant-numeric:normal;font-variant-alternates:normal;font-variant-east-asian:normal;font-feature-settings:normal;font-variation-settings:normal;text-indent:0;text-align:start;text-decoration-line:none;text-decoration-style:solid;text-decoration-color:#000000;letter-spacing:normal;word-spacing:normal;text-transform:none;writing-mode:lr-tb;direction:ltr;text-orientation:mixed;dominant-baseline:auto;baseline-shift:baseline;white-space:pre;opacity:0.98;vector-effect:none;fill:#ad408e;fill-opacity:1;stroke:#e0e0e0;stroke-width:0.3;stroke-linecap:butt;stroke-linejoin:miter;stroke-miterlimit:4;stroke-dasharray:none;stroke-dashoffset:0;stroke-opacity:1;-inkscape-stroke:none;stop-color:#000000;stop-opacity:1"
       x="77.224197"
       y="10.048576"
       id="text22-7-31"
       transform="scale(1.0037198,0.99629399)"><tspan
         sodipodi:role="line"
         id="tspan22-0-9"
         style="font-style:normal;font-variant:normal;font-weight:normal;font-stretch:normal;font-size:6.73314px;line-height:normal;font-family:sans-serif;font-variant-ligatures:normal;font-variant-position:normal;font-variant-caps:normal;font-variant-numeric:normal;font-variant-alternates:normal;font-variant-east-asian:normal;font-feature-settings:normal;font-variation-settings:normal;text-indent:0;text-align:start;text-decoration-line:none;text-decoration-style:solid;text-decoration-color:#000000;letter-spacing:normal;word-spacing:normal;text-transform:none;writing-mode:lr-tb;direction:ltr;text-orientation:mixed;dominant-baseline:auto;baseline-shift:baseline;white-space:pre;vector-effect:none;fill:#ad408e;fill-opacity:1;stroke:#e0e0e0;stroke-width:0.3;stroke-linecap:butt;stroke-linejoin:miter;stroke-miterlimit:4;stroke-dasharray:none;stroke-dashoffset:0;stroke-opacity:1;-inkscape-stroke:none;stop-color:#000000;stop-opacity:1"
         x="77.224197"
         y="10.048576">cos(x)</tspan></text>
    <text
       xml:space="preserve"
       style="font-size:6.73314px;line-height:normal;font-family:sans-serif;text-decoration-color:#000000;white-space:pre;opacity:0.98;fill:#ad408e;stroke:#e0e0e0;stroke-width:0.3;stroke-dasharray:none"
       x="124.58218"
       y="40.015335"
       id="text22-7-31-7"
       transform="scale(1.0037198,0.99629399)"><tspan
         sodipodi:role="line"
         id="tspan22-0-9-3"
         style="stroke-width:0.3;stroke-dasharray:none"
         x="124.58218"
         y="40.015335">EVEN</tspan></text>
    <text
       xml:space="preserve"
       style="font-size:6.73314px;line-height:normal;font-family:sans-serif;text-decoration-color:#000000;white-space:pre;opacity:0.98;fill:#5c00ff;fill-opacity:1;stroke:#e0e0e0;stroke-width:0.3;stroke-dasharray:none"
       x="149.91377"
       y="10.349237"
       id="text22-7-31-4"
       transform="scale(1.0037198,0.99629399)"><tspan
         sodipodi:role="line"
         id="tspan22-0-9-5"
         style="fill:#5c00ff;fill-opacity:1;stroke-width:0.3;stroke-dasharray:none"
         x="149.91377"
         y="10.349237">tan(x)</tspan></text>
    <text
       xml:space="preserve"
       style="font-size:6.73314px;line-height:normal;font-family:sans-serif;text-decoration-color:#000000;white-space:pre;opacity:0.98;fill:#5c00ff;fill-opacity:1;stroke:#e0e0e0;stroke-width:0.3;stroke-dasharray:none"
       x="165.15363"
       y="39.689583"
       id="text22-7-31-4-3"
       transform="scale(1.0037198,0.99629399)"><tspan
         sodipodi:role="line"
         id="tspan22-0-9-5-9"
         style="fill:#5c00ff;fill-opacity:1;stroke-width:0.3;stroke-dasharray:none"
         x="165.15363"
         y="39.689583">ODD</tspan></text>
    <circle
       style="font-variation-settings:normal;opacity:0.98;vector-effect:none;fill:#ffffff;fill-opacity:1;stroke:#e0e0e0;stroke-width:0.499999;stroke-linecap:butt;stroke-linejoin:miter;stroke-miterlimit:4;stroke-dasharray:none;stroke-dashoffset:0;stroke-opacity:1;-inkscape-stroke:none"
       id="path23"
       cx="170.53755"
       cy="17.676851"
       r="0.82519329" />
    <circle
       style="font-variation-settings:normal;opacity:0.98;vector-effect:none;fill:#ffffff;fill-opacity:1;stroke:#e0e0e0;stroke-width:0.499999;stroke-linecap:butt;stroke-linejoin:miter;stroke-miterlimit:4;stroke-dasharray:none;stroke-dashoffset:0;stroke-opacity:1;-inkscape-stroke:none"
       id="path23-3"
       cx="117.63488"
       cy="20.504316"
       r="0.82519329" />
    <circle
       style="font-variation-settings:normal;opacity:0.98;vector-effect:none;fill:#ffffff;fill-opacity:1;stroke:#e0e0e0;stroke-width:0.499999;stroke-linecap:butt;stroke-linejoin:miter;stroke-miterlimit:4;stroke-dasharray:none;stroke-dashoffset:0;stroke-opacity:1;-inkscape-stroke:none"
       id="path23-3-2"
       cx="103.11129"
       cy="20.421291"
       r="0.82519329" />
    <circle
       style="font-variation-settings:normal;opacity:0.98;vector-effect:none;fill:#ffffff;fill-opacity:1;stroke:#e0e0e0;stroke-width:0.499999;stroke-linecap:butt;stroke-linejoin:miter;stroke-miterlimit:4;stroke-dasharray:none;stroke-dashoffset:0;stroke-opacity:1;-inkscape-stroke:none"
       id="path23-3-2-4"
       cx="46.119839"
       cy="10.340875"
       r="0.82519329" />
    <circle
       style="font-variation-settings:normal;opacity:0.98;vector-effect:none;fill:#ffffff;fill-opacity:1;stroke:#e0e0e0;stroke-width:0.499999;stroke-linecap:butt;stroke-linejoin:miter;stroke-miterlimit:4;stroke-dasharray:none;stroke-dashoffset:0;stroke-opacity:1;-inkscape-stroke:none"
       id="path23-3-2-4-7"
       cx="29.55685"
       cy="34.708302"
       r="0.82519329" />
    <circle
       style="font-variation-settings:normal;opacity:0.98;vector-effect:none;fill:#ffffff;fill-opacity:1;stroke:#e0e0e0;stroke-width:0.499999;stroke-linecap:butt;stroke-linejoin:miter;stroke-miterlimit:4;stroke-dasharray:none;stroke-dashoffset:0;stroke-opacity:1;-inkscape-stroke:none"
       id="path23-6"
       cx="160.60593"
       cy="28.191208"
       r="0.82519329" />
  </g>
</svg>
